<mxfile host="app.diagrams.net" agent="Mozilla/5.0 (Windows NT 10.0; Win64; x64; rv:137.0) Gecko/20100101 Firefox/137.0" version="26.2.12">
  <diagram id="WI9T0HZ2pTsCkuznbFz-" name="Page-1">
    <mxGraphModel dx="1221" dy="1036" grid="0" gridSize="19" guides="1" tooltips="1" connect="1" arrows="1" fold="1" page="0" pageScale="1" pageWidth="1169" pageHeight="827" background="#ffffff" math="0" shadow="0">
      <root>
        <mxCell id="0" />
        <mxCell id="1" parent="0" />
        <mxCell id="F1OAkZORNfgH_RURmLhv-41" value="&lt;b&gt;&lt;font style=&quot;font-size: 14px;&quot;&gt;Primary region&lt;/font&gt;&lt;/b&gt;" style="rounded=0;whiteSpace=wrap;html=1;fillColor=none;dashed=1;container=0;labelPosition=center;verticalLabelPosition=top;align=center;verticalAlign=bottom;" parent="1" vertex="1">
          <mxGeometry x="685" y="-144" width="478" height="385" as="geometry" />
        </mxCell>
        <mxCell id="F1OAkZORNfgH_RURmLhv-17" style="rounded=0;orthogonalLoop=1;jettySize=auto;html=1;exitX=0.5;exitY=0;exitDx=0;exitDy=0;strokeColor=#6c8ebf;fontColor=#FFFFFF;fillColor=#dae8fc;edgeStyle=orthogonalEdgeStyle;entryX=0;entryY=0.5;entryDx=0;entryDy=0;" parent="1" source="F1OAkZORNfgH_RURmLhv-6" target="F1OAkZORNfgH_RURmLhv-10" edge="1">
          <mxGeometry relative="1" as="geometry">
            <mxPoint x="168.95" y="135.45" as="sourcePoint" />
            <mxPoint x="305" y="657" as="targetPoint" />
            <Array as="points">
              <mxPoint x="196" y="136" />
              <mxPoint x="11" y="136" />
              <mxPoint x="11" y="603" />
              <mxPoint x="305" y="603" />
            </Array>
          </mxGeometry>
        </mxCell>
        <mxCell id="F1OAkZORNfgH_RURmLhv-15" value="" style="image;aspect=fixed;html=1;points=[];align=left;fontSize=12;image=img/lib/azure2/networking/DNS_Zones.svg;strokeColor=#BAC8D3;fontColor=#182E3E;fillColor=#B1DDF0;labelPosition=right;verticalLabelPosition=middle;verticalAlign=middle;" parent="1" vertex="1">
          <mxGeometry x="28" y="242" width="50" height="50" as="geometry" />
        </mxCell>
        <mxCell id="F1OAkZORNfgH_RURmLhv-16" style="edgeStyle=orthogonalEdgeStyle;rounded=0;orthogonalLoop=1;jettySize=auto;html=1;exitX=0;exitY=0.5;exitDx=0;exitDy=0;entryX=0.572;entryY=-0.012;entryDx=0;entryDy=0;entryPerimeter=0;strokeColor=#6c8ebf;fontColor=#FFFFFF;fillColor=#dae8fc;" parent="1" source="F1OAkZORNfgH_RURmLhv-6" target="F1OAkZORNfgH_RURmLhv-15" edge="1">
          <mxGeometry relative="1" as="geometry" />
        </mxCell>
        <mxCell id="F1OAkZORNfgH_RURmLhv-61" value="" style="edgeLabel;html=1;align=center;verticalAlign=middle;resizable=0;points=[];strokeColor=#BAC8D3;fontColor=#182E3E;fillColor=#B1DDF0;" parent="F1OAkZORNfgH_RURmLhv-16" vertex="1" connectable="0">
          <mxGeometry x="-0.1141" y="1" relative="1" as="geometry">
            <mxPoint as="offset" />
          </mxGeometry>
        </mxCell>
        <mxCell id="F1OAkZORNfgH_RURmLhv-19" value="" style="group" parent="1" vertex="1" connectable="0">
          <mxGeometry x="416" y="582" width="149.60000000000002" height="41" as="geometry" />
        </mxCell>
        <mxCell id="F1OAkZORNfgH_RURmLhv-10" value="&lt;div&gt;Identity Provider&lt;/div&gt;" style="rounded=1;whiteSpace=wrap;html=1;labelBackgroundColor=none;fillColor=#B1DDF0;strokeColor=#BAC8D3;fontColor=#182E3E;movable=1;resizable=1;rotatable=1;deletable=1;editable=1;locked=0;connectable=1;" parent="F1OAkZORNfgH_RURmLhv-19" vertex="1">
          <mxGeometry width="149.6" height="41" as="geometry" />
        </mxCell>
        <mxCell id="F1OAkZORNfgH_RURmLhv-9" value="" style="image;aspect=fixed;html=1;points=[];align=center;fontSize=12;image=img/lib/azure2/other/Entra_Identity.svg;labelBackgroundColor=none;fillColor=#B1DDF0;strokeColor=#BAC8D3;fontColor=#182E3E;movable=0;resizable=0;rotatable=0;deletable=0;editable=0;locked=1;connectable=0;" parent="F1OAkZORNfgH_RURmLhv-19" vertex="1">
          <mxGeometry width="22.5" height="20" as="geometry" />
        </mxCell>
        <mxCell id="F1OAkZORNfgH_RURmLhv-20" value="" style="group" parent="1" vertex="1" connectable="0">
          <mxGeometry x="126" y="156.5" width="140" height="70" as="geometry" />
        </mxCell>
        <mxCell id="F1OAkZORNfgH_RURmLhv-6" value="&lt;div&gt;Client Application&lt;/div&gt;" style="rounded=1;whiteSpace=wrap;html=1;verticalAlign=bottom;labelBackgroundColor=none;fillColor=#B1DDF0;strokeColor=#BAC8D3;fontColor=#182E3E;" parent="F1OAkZORNfgH_RURmLhv-20" vertex="1">
          <mxGeometry width="140" height="70" as="geometry" />
        </mxCell>
        <mxCell id="F1OAkZORNfgH_RURmLhv-3" value="" style="shape=image;verticalLabelPosition=bottom;labelBackgroundColor=none;verticalAlign=top;aspect=fixed;imageAspect=0;image=data:image/svg+xml,PHN2ZyB4bWxuczpjYz0iaHR0cDovL2NyZWF0aXZlY29tbW9ucy5vcmcvbnMjIiB4bWxuczpkYz0iaHR0cDovL3B1cmwub3JnL2RjL2VsZW1lbnRzLzEuMS8iIHhtbG5zOmlua3NjYXBlPSJodHRwOi8vd3d3Lmlua3NjYXBlLm9yZy9uYW1lc3BhY2VzL2lua3NjYXBlIiB4bWxuczpyZGY9Imh0dHA6Ly93d3cudzMub3JnLzE5OTkvMDIvMjItcmRmLXN5bnRheC1ucyMiIHhtbG5zOnNvZGlwb2RpPSJodHRwOi8vc29kaXBvZGkuc291cmNlZm9yZ2UubmV0L0RURC9zb2RpcG9kaS0wLmR0ZCIgeG1sbnM6c3ZnPSJodHRwOi8vd3d3LnczLm9yZy8yMDAwL3N2ZyIgeG1sbnM9Imh0dHA6Ly93d3cudzMub3JnLzIwMDAvc3ZnIiB4bWxuczp4bGluaz0iaHR0cDovL3d3dy53My5vcmcvMTk5OS94bGluayIgdmVyc2lvbj0iMS4xIiBpZD0ic3ZnMTIyNDkiIGlua3NjYXBlOnZlcnNpb249IjAuOTIuMyAoMjQwNTU0NiwgMjAxOC0wMy0xMSkiIHNvZGlwb2RpOmRvY25hbWU9ImxhcHRvcF83LnN2ZyIgeD0iMHB4IiB5PSIwcHgiIHZpZXdCb3g9IjAgMCA0NS4yNSAzOC45NiIgc3R5bGU9ImVuYWJsZS1iYWNrZ3JvdW5kOm5ldyAwIDAgNDUuMjUgMzguOTY7IiB4bWw6c3BhY2U9InByZXNlcnZlIj4mI3hhOzxzb2RpcG9kaTpuYW1lZHZpZXcgYm9yZGVyY29sb3I9IiM2NjY2NjYiIGJvcmRlcm9wYWNpdHk9IjEiIGZpdC1tYXJnaW4tYm90dG9tPSIwIiBmaXQtbWFyZ2luLWxlZnQ9IjAiIGZpdC1tYXJnaW4tcmlnaHQ9IjAiIGZpdC1tYXJnaW4tdG9wPSIwIiBncmlkdG9sZXJhbmNlPSIxMCIgZ3VpZGV0b2xlcmFuY2U9IjEwIiBpZD0ibmFtZWR2aWV3MTIyNTEiIGlua3NjYXBlOmN1cnJlbnQtbGF5ZXI9InN2ZzEyMjQ5IiBpbmtzY2FwZTpjeD0iMzAuMDg4NTU1IiBpbmtzY2FwZTpjeT0iMjUuOTcwNTIiIGlua3NjYXBlOnBhZ2VvcGFjaXR5PSIwIiBpbmtzY2FwZTpwYWdlc2hhZG93PSIyIiBpbmtzY2FwZTp3aW5kb3ctaGVpZ2h0PSIxMDE3IiBpbmtzY2FwZTp3aW5kb3ctbWF4aW1pemVkPSIxIiBpbmtzY2FwZTp3aW5kb3ctd2lkdGg9IjE5MjAiIGlua3NjYXBlOndpbmRvdy14PSItOCIgaW5rc2NhcGU6d2luZG93LXk9Ii04IiBpbmtzY2FwZTp6b29tPSIxNi4zMzg2NzMiIG9iamVjdHRvbGVyYW5jZT0iMTAiIHBhZ2Vjb2xvcj0iI2ZmZmZmZiIgc2hvd2dyaWQ9ImZhbHNlIj4mI3hhOwk8L3NvZGlwb2RpOm5hbWVkdmlldz4mI3hhOzxnIGlkPSJnMTIyNDciIHRyYW5zZm9ybT0idHJhbnNsYXRlKC0wLjY3OTI4NzA1LC0wLjQyMTc2OTIzKSI+JiN4YTsJPHRpdGxlIGlkPSJ0aXRsZTEyMjA1Ij5QYWdlLTE8L3RpdGxlPiYjeGE7CTxnIGlkPSJncm91cDM2NTUtMSIgdHJhbnNmb3JtPSJ0cmFuc2xhdGUoMC45MzA5OTMsLTAuNzA3ODc0KSI+JiN4YTsJCTx0aXRsZSBpZD0idGl0bGUxMjIwNyI+TGFwdG9wICM3PC90aXRsZT4mI3hhOwkJPGcgaWQ9InNoYXBlMzY1Ni0yIiB0cmFuc2Zvcm09InRyYW5zbGF0ZSgxMC45Nzk2LC0xMS41ODgzKSI+JiN4YTsJCQk8dGl0bGUgaWQ9InRpdGxlMTIyMDkiPnBhdGgyNTQ3NzwvdGl0bGU+JiN4YTsJCQk8cGF0aCBpZD0icGF0aDEyMjExIiBpbmtzY2FwZTpjb25uZWN0b3ItY3VydmF0dXJlPSIwIiBzdHlsZT0iZmlsbDojQzFDMUMxO2ZpbGwtb3BhY2l0eTowOyIgZD0iTTMzLjUyLDE5LjEgICAgIGMwLjAzLDAuMDYsMC4wNywwLjM0LDAuMDYsMC40MWwtMy4yNywxOS45M0wwLjAyLDMxLjQ1TDAsMzEuNjRsMjkuOTYsOC4wN2MwLjM0LDAuMDksMC42Ni0wLjExLDAuNy0wLjQ1bDMuMTYtMTkuNTMgICAgIGMwLjA1LTAuMjItMC4wOC0wLjU2LTAuMy0wLjYxVjE5LjF6Ii8+JiN4YTsJCTwvZz4mI3hhOwkJPGcgaWQ9InNoYXBlMzY1Ny00Ij4mI3hhOwkJCTx0aXRsZSBpZD0idGl0bGUxMjIxNCI+cGF0aDI1NTE2PC90aXRsZT4mI3hhOwkJCSYjeGE7CQkJCTxwYXRoIGlkPSJwYXRoMTIyMTYiIGlua3NjYXBlOmNvbm5lY3Rvci1jdXJ2YXR1cmU9IjAiIHN0eWxlPSJmaWxsOiNCRUJFQkU7c3Ryb2tlOiM1NTZBOEE7c3Ryb2tlLXdpZHRoOjAuNzU7c3Ryb2tlLW1pdGVybGltaXQ6MztzdHJva2Utb3BhY2l0eTowLjQ7IiBkPSIgICAgIE0zMy45NSwzOS42N0wwLjksMjkuNDRjLTAuNjctMC4yMy0wLjktMS41OC0wLjMxLTJsMTAuNzUtNy40N2wyOS45MSw4LjA0bDAuMDIsMC4xM2MwLjAzLDAuMjUtMC4wNSwwLjY4LTAuMTcsMC45bC01LjcsMTAuMTUgICAgIEMzNS4xOSwzOS41MywzNC4zNSwzOS44LDMzLjk1LDM5LjY3eiIvPiYjeGE7CQk8L2c+JiN4YTsJCTxnIGlkPSJzaGFwZTM2NTgtNiIgdHJhbnNmb3JtPSJ0cmFuc2xhdGUoMC4xNTc4MTcsLTAuNTI5ODE1KSI+JiN4YTsJCQk8dGl0bGUgaWQ9InRpdGxlMTIyMTkiPnBhdGgyNTUxODwvdGl0bGU+JiN4YTsJCQkmI3hhOwkJCQk8cGF0aCBpZD0icGF0aDEyMjIxIiBpbmtzY2FwZTpjb25uZWN0b3ItY3VydmF0dXJlPSIwIiBzdHlsZT0iZmlsbDojNTU2QThBO3N0cm9rZTojNTU2QThBO3N0cm9rZS13aWR0aDoxLjMxMzQ7c3Ryb2tlLWxpbmVjYXA6c3F1YXJlO3N0cm9rZS1taXRlcmxpbWl0OjM7c3Ryb2tlLW9wYWNpdHk6MC4yOyIgZD0iICAgICBNMzMuOSwzOS42OUwwLjgzLDI5LjI5QzAuMTYsMjkuMDcsMCwyOC4xNiwwLjU5LDI3LjcxbDkuOTItNy40MWwzMC41NSw4LjIzYzAsMCwwLjAyLDAsMCwwLjAzbC02LjE0LDEwLjcxICAgICBDMzQuNywzOS42NSwzNC4yOSwzOS44LDMzLjksMzkuNjlMMzMuOSwzOS42OXoiLz4mI3hhOwkJPC9nPiYjeGE7CQk8ZyBpZD0ic2hhcGUzNjU5LTgiIHRyYW5zZm9ybT0idHJhbnNsYXRlKDcuMDExNiwtNS41MDEwNikiPiYjeGE7CQkJPHRpdGxlIGlkPSJ0aXRsZTEyMjI0Ij5wYXRoMjU1MjA8L3RpdGxlPiYjeGE7CQkJJiN4YTsJCQkJPHBhdGggaWQ9InBhdGgxMjIyNiIgaW5rc2NhcGU6Y29ubmVjdG9yLWN1cnZhdHVyZT0iMCIgc3R5bGU9ImZpbGw6I0JFQkVCRTtzdHJva2U6IzU1NkE4QTtzdHJva2Utd2lkdGg6MS4zMTM0O3N0cm9rZS1taXRlcmxpbWl0OjM7c3Ryb2tlLW9wYWNpdHk6MC40NzsiIGQ9IiAgICAgTTE0LjY4LDM5LjY3bC03Ljg5LTIuNWMtMC42MS0wLjE5LTAuNzctMC45OS0wLjI3LTEuNDJsMS45NS0xLjYyYzAuMjItMC4xOCwwLjUxLTAuMjMsMC43OC0wLjE1bDcuMjUsMi4zNSAgICAgYzAuNTMsMC4xOCwwLjc0LDAuODIsMC40LDEuMjdsLTEuMzEsMS44Yy0wLjIzLDAuMjctMC42MSwwLjQtMC45NCwwLjI5TDE0LjY4LDM5LjY3eiBNMjguOSwzOUwwLjQyLDMwLjE1ICAgICBDMC4wOCwzMC4wNCwwLDI5LjU5LDAuMywyOS4zOGwzLjg4LTMuMDFjMC4xMS0wLjA5LDAuMjctMC4xMSwwLjQyLTAuMDhsMjcuMDEsNy41MmMwLjI5LDAuMTIsMC41OCwwLjQzLDAuNDMsMC43bC0yLjY0LDQuMzEgICAgIGMtMC4xMSwwLjE3LTAuMzIsMC4yNS0wLjUxLDAuMTlMMjguOSwzOXoiLz4mI3hhOwkJPC9nPiYjeGE7CQk8ZyBpZD0ic2hhcGUzNjYwLTEwIiB0cmFuc2Zvcm09InRyYW5zbGF0ZSgxMC42NzUyLC0xMS43OTEyKSI+JiN4YTsJCQk8dGl0bGUgaWQ9InRpdGxlMTIyMjkiPnBhdGgyNTUyMjwvdGl0bGU+JiN4YTsJCQkmI3hhOwkJCQk8cGF0aCBpZD0icGF0aDEyMjMxIiBpbmtzY2FwZTpjb25uZWN0b3ItY3VydmF0dXJlPSIwIiBzdHlsZT0iZmlsbDojNTU2QThBO3N0cm9rZTojNTU2QThBO3N0cm9rZS13aWR0aDowLjg0NjE7c3Ryb2tlLW1pdGVybGltaXQ6MzsiIGQ9IiAgICAgTTMwLjUyLDM5Ljc5TDAsMzEuNTZsMi4wMi0xNy44NGMwLjAyLTAuMjQsMC4yNS0wLjQxLDAuNDgtMC4zN2wzMS4wNiw1LjljMC4yMiwwLjAzLDAuMzcsMC4yMiwwLjM0LDAuNDVsLTMuMzMsMjAuMDYgICAgIEMzMC41NywzOS43NiwzMC41NCwzOS44LDMwLjUyLDM5Ljc5eiIvPiYjeGE7CQk8L2c+JiN4YTsJCTxnIGlkPSJzaGFwZTM2NjEtMTIiIHRyYW5zZm9ybT0idHJhbnNsYXRlKDEyLjAxNjcsLTEyLjgzOTYpIj4mI3hhOwkJCTx0aXRsZSBpZD0idGl0bGUxMjIzNCI+cGF0aDI1NTI0PC90aXRsZT4mI3hhOwkJCTxwYXRoIGlkPSJwYXRoMTIyMzYiIGlua3NjYXBlOmNvbm5lY3Rvci1jdXJ2YXR1cmU9IjAiIHN0eWxlPSJmaWxsOiMxQTlCRjU7IiBkPSJNMjguMTUsMzkuOEwwLDMyLjM5bDEuODctMTYuMDcgICAgIGMwLjAyLTAuMjMsMC4yMy0wLjM2LDAuNDUtMC4zNGwyOC41LDUuNTZjMC4yLDAuMDMsMC4zNCwwLjIyLDAuMywwLjQyTDI4LjE4LDM5LjhIMjguMTV6Ii8+JiN4YTsJCTwvZz4mI3hhOwkJPGcgaWQ9InNoYXBlMzY2Mi0xNCIgdHJhbnNmb3JtPSJ0cmFuc2xhdGUoMTQuMTI0NywtMTIuODM5NikiPiYjeGE7CQkJPHRpdGxlIGlkPSJ0aXRsZTEyMjM5Ij5wYXRoMjU1MjY8L3RpdGxlPiYjeGE7CQkJPHBhdGggaWQ9InBhdGgxMjI0MSIgaW5rc2NhcGU6Y29ubmVjdG9yLWN1cnZhdHVyZT0iMCIgc3R5bGU9ImZpbGw6IzAwNDU3ODtmaWxsLW9wYWNpdHk6MC4yOyIgZD0iTTAsMzEuNTJsMi42NywyLjE1bDIzLjM3LDYuMTMgICAgIGwwLjMyLTEuODNsMi4zMS0xNC4wMWwtMS40Ny0xLjEzTDAsMzEuNTJ6Ii8+JiN4YTsJCQk8cGF0aCBpZD0icGF0aDEyMjQzIiBpbmtzY2FwZTpjb25uZWN0b3ItY3VydmF0dXJlPSIwIiBzdHlsZT0iZmlsbDpub25lOyIgZD0iTTAsMzEuNTJsMi42NywyLjE1bDIzLjM3LDYuMTNsMC4zMi0xLjgzICAgICBsMi4zMS0xNC4wMWwtMS40Ny0xLjEzIi8+JiN4YTsJCTwvZz4mI3hhOwk8L2c+JiN4YTs8L2c+JiN4YTs8L3N2Zz4=;fillColor=#B1DDF0;strokeColor=#BAC8D3;fontColor=#182E3E;" parent="F1OAkZORNfgH_RURmLhv-20" vertex="1">
          <mxGeometry x="22.5" y="10" width="45" height="39" as="geometry" />
        </mxCell>
        <mxCell id="F1OAkZORNfgH_RURmLhv-4" value="" style="shape=image;verticalLabelPosition=bottom;labelBackgroundColor=none;verticalAlign=top;aspect=fixed;imageAspect=0;image=data:image/svg+xml,PHN2ZyB4bWxuczpjYz0iaHR0cDovL2NyZWF0aXZlY29tbW9ucy5vcmcvbnMjIiB4bWxuczpkYz0iaHR0cDovL3B1cmwub3JnL2RjL2VsZW1lbnRzLzEuMS8iIHhtbG5zOmlua3NjYXBlPSJodHRwOi8vd3d3Lmlua3NjYXBlLm9yZy9uYW1lc3BhY2VzL2lua3NjYXBlIiB4bWxuczpyZGY9Imh0dHA6Ly93d3cudzMub3JnLzE5OTkvMDIvMjItcmRmLXN5bnRheC1ucyMiIHhtbG5zOnNvZGlwb2RpPSJodHRwOi8vc29kaXBvZGkuc291cmNlZm9yZ2UubmV0L0RURC9zb2RpcG9kaS0wLmR0ZCIgeG1sbnM6c3ZnPSJodHRwOi8vd3d3LnczLm9yZy8yMDAwL3N2ZyIgeG1sbnM9Imh0dHA6Ly93d3cudzMub3JnLzIwMDAvc3ZnIiB4bWxuczp4bGluaz0iaHR0cDovL3d3dy53My5vcmcvMTk5OS94bGluayIgdmVyc2lvbj0iMS4xIiBpZD0ic3ZnMjU0MTgiIGlua3NjYXBlOnZlcnNpb249IjAuOTIuMyAoMjQwNTU0NiwgMjAxOC0wMy0xMSkiIHNvZGlwb2RpOmRvY25hbWU9Im1vYmlsZV9waG9uZS5zdmciIHg9IjBweCIgeT0iMHB4IiB2aWV3Qm94PSIwIDAgMTIuNzUgMjUuNDciIHN0eWxlPSJlbmFibGUtYmFja2dyb3VuZDpuZXcgMCAwIDEyLjc1IDI1LjQ3OyIgeG1sOnNwYWNlPSJwcmVzZXJ2ZSI+JiN4YTs8c29kaXBvZGk6bmFtZWR2aWV3IGJvcmRlcmNvbG9yPSIjNjY2NjY2IiBib3JkZXJvcGFjaXR5PSIxIiBmaXQtbWFyZ2luLWJvdHRvbT0iMCIgZml0LW1hcmdpbi1sZWZ0PSIwIiBmaXQtbWFyZ2luLXJpZ2h0PSIwIiBmaXQtbWFyZ2luLXRvcD0iMCIgZ3JpZHRvbGVyYW5jZT0iMTAiIGd1aWRldG9sZXJhbmNlPSIxMCIgaWQ9Im5hbWVkdmlldzI1NDIwIiBpbmtzY2FwZTpjdXJyZW50LWxheWVyPSJzdmcyNTQxOCIgaW5rc2NhcGU6Y3g9IjguNTAwMDE0NyIgaW5rc2NhcGU6Y3k9IjE2Ljk4MTExOCIgaW5rc2NhcGU6cGFnZW9wYWNpdHk9IjAiIGlua3NjYXBlOnBhZ2VzaGFkb3c9IjIiIGlua3NjYXBlOndpbmRvdy1oZWlnaHQ9IjEwMTciIGlua3NjYXBlOndpbmRvdy1tYXhpbWl6ZWQ9IjEiIGlua3NjYXBlOndpbmRvdy13aWR0aD0iMTkyMCIgaW5rc2NhcGU6d2luZG93LXg9Ii04IiBpbmtzY2FwZTp3aW5kb3cteT0iLTgiIGlua3NjYXBlOnpvb209IjI0LjExMTE3NCIgb2JqZWN0dG9sZXJhbmNlPSIxMCIgcGFnZWNvbG9yPSIjZmZmZmZmIiBzaG93Z3JpZD0iZmFsc2UiPiYjeGE7CTwvc29kaXBvZGk6bmFtZWR2aWV3PiYjeGE7PGcgaWQ9ImcyNTQxNiIgdHJhbnNmb3JtPSJ0cmFuc2xhdGUoLTAuNzUsLTAuNzQ2OTE4NDUpIj4mI3hhOwk8dGl0bGUgaWQ9InRpdGxlMjUzODYiPlBhZ2UtMTwvdGl0bGU+JiN4YTsJPGcgaWQ9Imdyb3VwMzMxNy0xIiB0cmFuc2Zvcm09InRyYW5zbGF0ZSgwLjc1LC0wLjc2MDAwNykiPiYjeGE7CQk8dGl0bGUgaWQ9InRpdGxlMjUzODgiPk1vYmlsZSBQaG9uZTwvdGl0bGU+JiN4YTsJCTxnIGlkPSJzaGFwZTMzMTgtMiI+JiN4YTsJCQk8dGl0bGUgaWQ9InRpdGxlMjUzOTAiPnBhdGgyMzgyPC90aXRsZT4mI3hhOwkJCTxwYXRoIGlkPSJwYXRoMjUzOTIiIGlua3NjYXBlOmNvbm5lY3Rvci1jdXJ2YXR1cmU9IjAiIHN0eWxlPSJmaWxsOiMyRTJFMkU7IiBkPSJNMTEuNTEsMjYuNTljLTEuNjQsMC4zLTMuMywwLjQzLTQuOTYsMC4zOCAgICAgYy0xLjc4LDAuMDUtMy41Ni0wLjA4LTUuMzEtMC4zOEMwLjQ5LDI2LjQsMCwyNS45NiwwLDI1LjI1VjMuMWMwLTAuNzEsMC40Ny0xLjE0LDEuMjctMS4yNmMxLjc0LTAuMjIsMy40OS0wLjMzLDUuMjUtMC4zMyAgICAgYzEuNjYtMC4wMiwzLjMyLDAuMDksNC45NiwwLjMzYzAuODYsMC4xMywxLjI3LDAuNTcsMS4yNywxLjI5djIyLjEyQzEyLjc1LDI1Ljk2LDEyLjM4LDI2LjM5LDExLjUxLDI2LjU5eiIvPiYjeGE7CQk8L2c+JiN4YTsJCTxnIGlkPSJzaGFwZTMzMTktNCIgdHJhbnNmb3JtPSJ0cmFuc2xhdGUoMC43NSwtMi45NTUpIj4mI3hhOwkJCTx0aXRsZSBpZD0idGl0bGUyNTM5NSI+cmVjdDIzODQ8L3RpdGxlPiYjeGE7CQkJPHJlY3QgaWQ9InJlY3QyNTM5NyIgeT0iNy40NyIgc3R5bGU9ImZpbGw6IzJCOEZERTsiIHdpZHRoPSIxMS4yNSIgaGVpZ2h0PSIxOS41Ii8+JiN4YTsJCTwvZz4mI3hhOwkJPGcgaWQ9InNoYXBlMzMyMC02IiB0cmFuc2Zvcm09InRyYW5zbGF0ZSg1LjkyNSwtMjMuODM1KSI+JiN4YTsJCQk8dGl0bGUgaWQ9InRpdGxlMjU0MDAiPmNpcmNsZTIzODY8L3RpdGxlPiYjeGE7CQkJPGNpcmNsZSBpZD0iZWxsaXBzZTI1NDAyIiBzdHlsZT0iZmlsbDojNzU3NTc1OyIgY3g9IjAuMjUiIGN5PSIyNi43MiIgcj0iMC4yNSIvPiYjeGE7CQk8L2c+JiN4YTsJCTxnIGlkPSJzaGFwZTMzMjEtOCIgdHJhbnNmb3JtPSJ0cmFuc2xhdGUoMi4wNzc1LC0yMy42OTI1KSI+JiN4YTsJCQk8dGl0bGUgaWQ9InRpdGxlMjU0MDUiPmNpcmNsZTIzODg8L3RpdGxlPiYjeGE7CQkJPGNpcmNsZSBpZD0iZWxsaXBzZTI1NDA3IiBzdHlsZT0iZmlsbDojNzU3NTc1OyIgY3g9IjAuMiIgY3k9IjI2Ljc3IiByPSIwLjE5Ii8+JiN4YTsJCTwvZz4mI3hhOwkJPGcgaWQ9InNoYXBlMzMyMi0xMCIgdHJhbnNmb3JtPSJ0cmFuc2xhdGUoMS4zNzI1LC0xMi43MikiPiYjeGE7CQkJPHRpdGxlIGlkPSJ0aXRsZTI1NDEwIj5wb2x5Z29uMjM5MDwvdGl0bGU+JiN4YTsJCQk8cGF0aCBpZD0icGF0aDI1NDEyIiBpbmtzY2FwZTpjb25uZWN0b3ItY3VydmF0dXJlPSIwIiBzdHlsZT0iZmlsbDojRDFEM0Q0O2ZpbGwtb3BhY2l0eTowLjU7IiBkPSJNMCwxNy4yM2wxMC42Myw5Ljc0di05Ljc0SDB6Ii8+JiN4YTsJCTwvZz4mI3hhOwk8L2c+JiN4YTs8L2c+JiN4YTs8L3N2Zz4=;fillColor=#B1DDF0;strokeColor=#BAC8D3;fontColor=#182E3E;" parent="F1OAkZORNfgH_RURmLhv-20" vertex="1">
          <mxGeometry x="90" y="9" width="20.8" height="40" as="geometry" />
        </mxCell>
        <mxCell id="F1OAkZORNfgH_RURmLhv-26" value="" style="group" parent="1" vertex="1" connectable="0">
          <mxGeometry x="117" y="330" width="172" height="44" as="geometry" />
        </mxCell>
        <mxCell id="F1OAkZORNfgH_RURmLhv-28" style="edgeStyle=orthogonalEdgeStyle;rounded=0;orthogonalLoop=1;jettySize=auto;html=1;exitX=0.5;exitY=0;exitDx=0;exitDy=0;strokeColor=#EEEEEE;fontColor=#FFFFFF;" parent="F1OAkZORNfgH_RURmLhv-26" source="F1OAkZORNfgH_RURmLhv-22" edge="1">
          <mxGeometry relative="1" as="geometry">
            <mxPoint x="86.1052631578948" y="-51.631566097861764" as="targetPoint" />
          </mxGeometry>
        </mxCell>
        <mxCell id="F1OAkZORNfgH_RURmLhv-22" value="External Services" style="rounded=1;whiteSpace=wrap;html=1;verticalAlign=middle;labelBackgroundColor=none;fillColor=#B1DDF0;strokeColor=#BAC8D3;fontColor=#182E3E;" parent="F1OAkZORNfgH_RURmLhv-26" vertex="1">
          <mxGeometry width="172" height="44" as="geometry" />
        </mxCell>
        <mxCell id="F1OAkZORNfgH_RURmLhv-25" value="" style="verticalLabelPosition=bottom;html=1;verticalAlign=top;align=center;strokeColor=none;fillColor=#00BEF2;shape=mxgraph.azure.automation;pointerEvents=1;fontColor=#182E3E;" parent="F1OAkZORNfgH_RURmLhv-26" vertex="1">
          <mxGeometry x="1" width="31" height="31" as="geometry" />
        </mxCell>
        <mxCell id="F1OAkZORNfgH_RURmLhv-27" style="edgeStyle=orthogonalEdgeStyle;rounded=0;orthogonalLoop=1;jettySize=auto;html=1;strokeColor=#6c8ebf;fontColor=#FFFFFF;fillColor=#dae8fc;" parent="1" source="F1OAkZORNfgH_RURmLhv-22" target="F1OAkZORNfgH_RURmLhv-15" edge="1">
          <mxGeometry relative="1" as="geometry" />
        </mxCell>
        <mxCell id="F1OAkZORNfgH_RURmLhv-30" style="edgeStyle=orthogonalEdgeStyle;rounded=0;orthogonalLoop=1;jettySize=auto;html=1;strokeColor=#6c8ebf;fontColor=#FFFFFF;fillColor=#dae8fc;entryX=0.5;entryY=0;entryDx=0;entryDy=0;exitX=0.5;exitY=1;exitDx=0;exitDy=0;" parent="1" source="F1OAkZORNfgH_RURmLhv-22" target="F1OAkZORNfgH_RURmLhv-10" edge="1">
          <mxGeometry relative="1" as="geometry">
            <mxPoint x="203.00000000000023" y="325.36843390213824" as="targetPoint" />
            <Array as="points">
              <mxPoint x="203" y="504" />
              <mxPoint x="491" y="504" />
            </Array>
          </mxGeometry>
        </mxCell>
        <mxCell id="F1OAkZORNfgH_RURmLhv-33" style="edgeStyle=orthogonalEdgeStyle;rounded=0;orthogonalLoop=1;jettySize=auto;html=1;entryX=0.52;entryY=0.992;entryDx=0;entryDy=0;strokeColor=#6c8ebf;fontColor=#FFFFFF;fillColor=#dae8fc;entryPerimeter=0;" parent="1" source="F1OAkZORNfgH_RURmLhv-22" target="F1OAkZORNfgH_RURmLhv-35" edge="1">
          <mxGeometry relative="1" as="geometry">
            <mxPoint x="432.0000000000002" y="337" as="targetPoint" />
          </mxGeometry>
        </mxCell>
        <mxCell id="F1OAkZORNfgH_RURmLhv-34" style="edgeStyle=orthogonalEdgeStyle;rounded=0;orthogonalLoop=1;jettySize=auto;html=1;entryX=0.453;entryY=0.035;entryDx=0;entryDy=0;strokeColor=#6c8ebf;fontColor=#FFFFFF;fillColor=#dae8fc;entryPerimeter=0;" parent="1" source="F1OAkZORNfgH_RURmLhv-6" target="F1OAkZORNfgH_RURmLhv-35" edge="1">
          <mxGeometry relative="1" as="geometry">
            <mxPoint x="432.0000000000002" y="237" as="targetPoint" />
          </mxGeometry>
        </mxCell>
        <mxCell id="F1OAkZORNfgH_RURmLhv-39" style="edgeStyle=orthogonalEdgeStyle;rounded=0;orthogonalLoop=1;jettySize=auto;html=1;entryX=0;entryY=0.5;entryDx=0;entryDy=0;strokeColor=#6c8ebf;fontColor=#FFFFFF;fillColor=#dae8fc;" parent="1" source="F1OAkZORNfgH_RURmLhv-35" target="F1OAkZORNfgH_RURmLhv-37" edge="1">
          <mxGeometry relative="1" as="geometry" />
        </mxCell>
        <mxCell id="F1OAkZORNfgH_RURmLhv-40" style="edgeStyle=orthogonalEdgeStyle;rounded=0;orthogonalLoop=1;jettySize=auto;html=1;entryX=0;entryY=0.5;entryDx=0;entryDy=0;strokeColor=#6c8ebf;fontColor=#FFFFFF;fillColor=#dae8fc;" parent="1" source="F1OAkZORNfgH_RURmLhv-35" target="F1OAkZORNfgH_RURmLhv-38" edge="1">
          <mxGeometry relative="1" as="geometry" />
        </mxCell>
        <mxCell id="F1OAkZORNfgH_RURmLhv-35" value="Azure Front Door" style="image;sketch=0;aspect=fixed;html=1;points=[];align=center;fontSize=12;image=img/lib/mscae/Front_Doors.svg;strokeColor=#BAC8D3;fontColor=#182E3E;fillColor=#B1DDF0;" parent="1" vertex="1">
          <mxGeometry x="359" y="247.5" width="50" height="44" as="geometry" />
        </mxCell>
        <mxCell id="F1OAkZORNfgH_RURmLhv-37" value="Regional&#xa;Load Balancer" style="shape=image;verticalLabelPosition=top;labelBackgroundColor=#ffffff;verticalAlign=bottom;aspect=fixed;imageAspect=0;image=data:image/svg+xml,PHN2ZyB4bWxuczpkYz0iaHR0cDovL3B1cmwub3JnL2RjL2VsZW1lbnRzLzEuMS8iIHhtbG5zOmNjPSJodHRwOi8vY3JlYXRpdmVjb21tb25zLm9yZy9ucyMiIHhtbG5zOnJkZj0iaHR0cDovL3d3dy53My5vcmcvMTk5OS8wMi8yMi1yZGYtc3ludGF4LW5zIyIgeG1sbnM6c3ZnPSJodHRwOi8vd3d3LnczLm9yZy8yMDAwL3N2ZyIgeG1sbnM9Imh0dHA6Ly93d3cudzMub3JnLzIwMDAvc3ZnIiB4bWxuczpzb2RpcG9kaT0iaHR0cDovL3NvZGlwb2RpLnNvdXJjZWZvcmdlLm5ldC9EVEQvc29kaXBvZGktMC5kdGQiIHhtbG5zOmlua3NjYXBlPSJodHRwOi8vd3d3Lmlua3NjYXBlLm9yZy9uYW1lc3BhY2VzL2lua3NjYXBlIiB2ZXJzaW9uPSIxLjEiIGlkPSJzdmc4Mjg3OSIgaW5rc2NhcGU6dmVyc2lvbj0iMC45Mi4zICgyNDA1NTQ2LCAyMDE4LTAzLTExKSIgc29kaXBvZGk6ZG9jbmFtZT0ibG9hZF9iYWxhbmNlci5zdmciIHg9IjBweCIgeT0iMHB4IiB2aWV3Qm94PSIwIDAgMTAwLjMxIDEwMC4zMSIgeG1sOnNwYWNlPSJwcmVzZXJ2ZSIgd2lkdGg9IjEwMC4zMSIgaGVpZ2h0PSIxMDAuMzEiPjxtZXRhZGF0YSBpZD0ibWV0YWRhdGEyNDEyIj48cmRmOlJERj48Y2M6V29yayByZGY6YWJvdXQ9IiI+PGRjOmZvcm1hdD5pbWFnZS9zdmcreG1sPC9kYzpmb3JtYXQ+PGRjOnR5cGUgcmRmOnJlc291cmNlPSJodHRwOi8vcHVybC5vcmcvZGMvZGNtaXR5cGUvU3RpbGxJbWFnZSIvPjxkYzp0aXRsZS8+PC9jYzpXb3JrPjwvcmRmOlJERj48L21ldGFkYXRhPjxkZWZzIGlkPSJkZWZzMjQxMCIvPiYjeGE7PGZpbHRlciBpZD0iZmlsdGVyXzIiPiYjeGE7CTxmZUdhdXNzaWFuQmx1ciBpZD0iZmVHYXVzc2lhbkJsdXI4MjgzNiIgc3RkRGV2aWF0aW9uPSIyIi8+JiN4YTs8L2ZpbHRlcj4mI3hhOzxzb2RpcG9kaTpuYW1lZHZpZXcgYm9yZGVyY29sb3I9IiM2NjY2NjYiIGJvcmRlcm9wYWNpdHk9IjEiIGZpdC1tYXJnaW4tYm90dG9tPSIwIiBmaXQtbWFyZ2luLWxlZnQ9IjAiIGZpdC1tYXJnaW4tcmlnaHQ9IjAiIGZpdC1tYXJnaW4tdG9wPSIwIiBncmlkdG9sZXJhbmNlPSIxMCIgZ3VpZGV0b2xlcmFuY2U9IjEwIiBpZD0ibmFtZWR2aWV3ODI4ODEiIGlua3NjYXBlOmN1cnJlbnQtbGF5ZXI9InN2ZzgyODc5IiBpbmtzY2FwZTpjeD0iLTM2LjI2NDEyMyIgaW5rc2NhcGU6Y3k9IjQzLjM4OTQ1NSIgaW5rc2NhcGU6cGFnZW9wYWNpdHk9IjAiIGlua3NjYXBlOnBhZ2VzaGFkb3c9IjIiIGlua3NjYXBlOndpbmRvdy1oZWlnaHQ9IjEwMTciIGlua3NjYXBlOndpbmRvdy1tYXhpbWl6ZWQ9IjEiIGlua3NjYXBlOndpbmRvdy13aWR0aD0iMTkyMCIgaW5rc2NhcGU6d2luZG93LXg9Ii04IiBpbmtzY2FwZTp3aW5kb3cteT0iLTgiIGlua3NjYXBlOnpvb209IjUuMjEwODU3NiIgb2JqZWN0dG9sZXJhbmNlPSIxMCIgcGFnZWNvbG9yPSIjZmZmZmZmIiBzaG93Z3JpZD0iZmFsc2UiPiYjeGE7CTwvc29kaXBvZGk6bmFtZWR2aWV3PiYjeGE7JiN4YTs8cGF0aCBpZD0icGF0aDgyODQ5IiBpbmtzY2FwZTpjb25uZWN0b3ItY3VydmF0dXJlPSIwIiBzdHlsZT0iZmlsbDojN2ZiYTAwIiBkPSJtIDUwLjE1LDEwMC4zMSBjIC0yLjQ3LDAgLTQuNzksLTAuOTcgLTYuNTQsLTIuNzEgTCAyLjcxLDU2LjY5IEMgMC45OSw1NC45NyAwLDUyLjU5IDAsNTAuMTUgMCw0Ny43MiAwLjk5LDQ1LjMzIDIuNzEsNDMuNjEgTCA0My42MSwyLjcxIEMgNDUuMzYsMC45NiA0Ny42OCwwIDUwLjE1LDAgYyAyLjQ3LDAgNC44LDAuOTYgNi41NSwyLjcxIGwgNDAuODksNDAuOSBjIDEuNzUsMS43NCAyLjcyLDQuMDcgMi43Miw2LjU0IDAsMi40OCAtMC45Nyw0LjggLTIuNzIsNi41NSBMIDU2LjcsOTcuNiBjIC0xLjc1LDEuNzQgLTQuMDgsMi43MSAtNi41NSwyLjcxIHoiLz4mI3hhOyYjeGE7PHBhdGggaWQ9InBhdGg4Mjg1NyIgaW5rc2NhcGU6Y29ubmVjdG9yLWN1cnZhdHVyZT0iMCIgc3R5bGU9ImZpbGw6I2ZmZmZmZiIgZD0iTSA5MS41LDQ5LjQ4IDc4LjI0LDM2LjIxIHYgOS4zNyBMIDY0LjE2LDQ1LjU3IEMgNjIuOCw0MC43MiA1OSwzNi44OCA1NC4xNiwzNS41IFYgMjIuMDcgaCA5LjI2IEwgNTAuMTUsOC44MSAzNi44OSwyMi4wNyBoIDkuMjUgdiAxMy40MiBjIC00LjgzLDEuMzkgLTguNjMsNS4yMSAtOS45OSwxMC4wNSBMIDIyLjA3LDQ1LjUzIFYgMzYuMjYgTCA4LjgsNDkuNTMgMjIuMDcsNjIuNzkgdiAtOS4zNiBsIDE0LjA4LDAuMDEgYyAxLjM3LDQuODMgNS4xNyw4LjY0IDkuOTksMTAuMDIgdiA5LjMxIGMgLTIuMDEsMS40NiAtNS4wNyw0LjUzIC01LjA3LDguMSAwLDQuOTggNC4wOCw5LjAzIDkuMDUsOS4wMyA0Ljk4LDAgOS4wNSwtNC4wNSA5LjA1LC05LjAzIDAsLTMuNTMgLTMsLTYuNTcgLTUuMDEsLTguMDUgdiAtOS4zNiBjIDQuODIsLTEuMzggOC42MSwtNS4xOCA5Ljk4LC05Ljk5IGwgMTQuMSwwLjAxIHYgOS4yNiB6Ii8+JiN4YTsmI3hhOzxwYXRoIGlkPSJwYXRoODI4NjUiIGlua3NjYXBlOmNvbm5lY3Rvci1jdXJ2YXR1cmU9IjAiIHN0eWxlPSJmaWxsOiM1OWI0ZDkiIGQ9Im0gNTAuMTUsMzguOTMgYyAtNS44MiwwIC0xMC41NSw0LjczIC0xMC41NSwxMC41NSAwLDUuODIgNC43MywxMC41NSAxMC41NSwxMC41NSA1LjgxLDAgMTAuNTUsLTQuNzMgMTAuNTUsLTEwLjU1IDAsLTUuODIgLTQuNzQsLTEwLjU1IC0xMC41NSwtMTAuNTUgeiIvPiYjeGE7JiN4YTs8cGF0aCBpZD0icGF0aDgyODczIiBpbmtzY2FwZTpjb25uZWN0b3ItY3VydmF0dXJlPSIwIiBzdHlsZT0iZmlsbDojZmZmZmZmO2ZpbGwtb3BhY2l0eTowLjE1IiBkPSJNIDU2LjcsMi43MiBDIDU0Ljk1LDAuOTcgNTIuNjMsMCA1MC4xNSwwIDQ3LjY5LDAgNDUuMzYsMC45NyA0My42MSwyLjcyIEwgMi43MSw0My42MiBDIDAuOTksNDUuMzQgMCw0Ny43MiAwLDUwLjE2IDAsNTIuNTkgMC45OSw1NC45OCAyLjcxLDU2LjcgTCAyNS44Nyw3OS44NiA2OS40MywxNS40NSBaIi8+JiN4YTs8L3N2Zz4=;strokeColor=#BAC8D3;fontColor=#182E3E;fillColor=#B1DDF0;labelPosition=left;align=right;" parent="1" vertex="1">
          <mxGeometry x="646" y="29" width="39" height="39" as="geometry" />
        </mxCell>
        <mxCell id="F1OAkZORNfgH_RURmLhv-38" value="Regional&#xa;Load Balancer" style="shape=image;verticalLabelPosition=top;labelBackgroundColor=default;verticalAlign=bottom;aspect=fixed;imageAspect=0;image=data:image/svg+xml,PHN2ZyB4bWxuczpkYz0iaHR0cDovL3B1cmwub3JnL2RjL2VsZW1lbnRzLzEuMS8iIHhtbG5zOmNjPSJodHRwOi8vY3JlYXRpdmVjb21tb25zLm9yZy9ucyMiIHhtbG5zOnJkZj0iaHR0cDovL3d3dy53My5vcmcvMTk5OS8wMi8yMi1yZGYtc3ludGF4LW5zIyIgeG1sbnM6c3ZnPSJodHRwOi8vd3d3LnczLm9yZy8yMDAwL3N2ZyIgeG1sbnM9Imh0dHA6Ly93d3cudzMub3JnLzIwMDAvc3ZnIiB4bWxuczpzb2RpcG9kaT0iaHR0cDovL3NvZGlwb2RpLnNvdXJjZWZvcmdlLm5ldC9EVEQvc29kaXBvZGktMC5kdGQiIHhtbG5zOmlua3NjYXBlPSJodHRwOi8vd3d3Lmlua3NjYXBlLm9yZy9uYW1lc3BhY2VzL2lua3NjYXBlIiB2ZXJzaW9uPSIxLjEiIGlkPSJzdmc4Mjg3OSIgaW5rc2NhcGU6dmVyc2lvbj0iMC45Mi4zICgyNDA1NTQ2LCAyMDE4LTAzLTExKSIgc29kaXBvZGk6ZG9jbmFtZT0ibG9hZF9iYWxhbmNlci5zdmciIHg9IjBweCIgeT0iMHB4IiB2aWV3Qm94PSIwIDAgMTAwLjMxIDEwMC4zMSIgeG1sOnNwYWNlPSJwcmVzZXJ2ZSIgd2lkdGg9IjEwMC4zMSIgaGVpZ2h0PSIxMDAuMzEiPjxtZXRhZGF0YSBpZD0ibWV0YWRhdGEyNDEyIj48cmRmOlJERj48Y2M6V29yayByZGY6YWJvdXQ9IiI+PGRjOmZvcm1hdD5pbWFnZS9zdmcreG1sPC9kYzpmb3JtYXQ+PGRjOnR5cGUgcmRmOnJlc291cmNlPSJodHRwOi8vcHVybC5vcmcvZGMvZGNtaXR5cGUvU3RpbGxJbWFnZSIvPjxkYzp0aXRsZS8+PC9jYzpXb3JrPjwvcmRmOlJERj48L21ldGFkYXRhPjxkZWZzIGlkPSJkZWZzMjQxMCIvPiYjeGE7PGZpbHRlciBpZD0iZmlsdGVyXzIiPiYjeGE7CTxmZUdhdXNzaWFuQmx1ciBpZD0iZmVHYXVzc2lhbkJsdXI4MjgzNiIgc3RkRGV2aWF0aW9uPSIyIi8+JiN4YTs8L2ZpbHRlcj4mI3hhOzxzb2RpcG9kaTpuYW1lZHZpZXcgYm9yZGVyY29sb3I9IiM2NjY2NjYiIGJvcmRlcm9wYWNpdHk9IjEiIGZpdC1tYXJnaW4tYm90dG9tPSIwIiBmaXQtbWFyZ2luLWxlZnQ9IjAiIGZpdC1tYXJnaW4tcmlnaHQ9IjAiIGZpdC1tYXJnaW4tdG9wPSIwIiBncmlkdG9sZXJhbmNlPSIxMCIgZ3VpZGV0b2xlcmFuY2U9IjEwIiBpZD0ibmFtZWR2aWV3ODI4ODEiIGlua3NjYXBlOmN1cnJlbnQtbGF5ZXI9InN2ZzgyODc5IiBpbmtzY2FwZTpjeD0iLTM2LjI2NDEyMyIgaW5rc2NhcGU6Y3k9IjQzLjM4OTQ1NSIgaW5rc2NhcGU6cGFnZW9wYWNpdHk9IjAiIGlua3NjYXBlOnBhZ2VzaGFkb3c9IjIiIGlua3NjYXBlOndpbmRvdy1oZWlnaHQ9IjEwMTciIGlua3NjYXBlOndpbmRvdy1tYXhpbWl6ZWQ9IjEiIGlua3NjYXBlOndpbmRvdy13aWR0aD0iMTkyMCIgaW5rc2NhcGU6d2luZG93LXg9Ii04IiBpbmtzY2FwZTp3aW5kb3cteT0iLTgiIGlua3NjYXBlOnpvb209IjUuMjEwODU3NiIgb2JqZWN0dG9sZXJhbmNlPSIxMCIgcGFnZWNvbG9yPSIjZmZmZmZmIiBzaG93Z3JpZD0iZmFsc2UiPiYjeGE7CTwvc29kaXBvZGk6bmFtZWR2aWV3PiYjeGE7JiN4YTs8cGF0aCBpZD0icGF0aDgyODQ5IiBpbmtzY2FwZTpjb25uZWN0b3ItY3VydmF0dXJlPSIwIiBzdHlsZT0iZmlsbDojN2ZiYTAwIiBkPSJtIDUwLjE1LDEwMC4zMSBjIC0yLjQ3LDAgLTQuNzksLTAuOTcgLTYuNTQsLTIuNzEgTCAyLjcxLDU2LjY5IEMgMC45OSw1NC45NyAwLDUyLjU5IDAsNTAuMTUgMCw0Ny43MiAwLjk5LDQ1LjMzIDIuNzEsNDMuNjEgTCA0My42MSwyLjcxIEMgNDUuMzYsMC45NiA0Ny42OCwwIDUwLjE1LDAgYyAyLjQ3LDAgNC44LDAuOTYgNi41NSwyLjcxIGwgNDAuODksNDAuOSBjIDEuNzUsMS43NCAyLjcyLDQuMDcgMi43Miw2LjU0IDAsMi40OCAtMC45Nyw0LjggLTIuNzIsNi41NSBMIDU2LjcsOTcuNiBjIC0xLjc1LDEuNzQgLTQuMDgsMi43MSAtNi41NSwyLjcxIHoiLz4mI3hhOyYjeGE7PHBhdGggaWQ9InBhdGg4Mjg1NyIgaW5rc2NhcGU6Y29ubmVjdG9yLWN1cnZhdHVyZT0iMCIgc3R5bGU9ImZpbGw6I2ZmZmZmZiIgZD0iTSA5MS41LDQ5LjQ4IDc4LjI0LDM2LjIxIHYgOS4zNyBMIDY0LjE2LDQ1LjU3IEMgNjIuOCw0MC43MiA1OSwzNi44OCA1NC4xNiwzNS41IFYgMjIuMDcgaCA5LjI2IEwgNTAuMTUsOC44MSAzNi44OSwyMi4wNyBoIDkuMjUgdiAxMy40MiBjIC00LjgzLDEuMzkgLTguNjMsNS4yMSAtOS45OSwxMC4wNSBMIDIyLjA3LDQ1LjUzIFYgMzYuMjYgTCA4LjgsNDkuNTMgMjIuMDcsNjIuNzkgdiAtOS4zNiBsIDE0LjA4LDAuMDEgYyAxLjM3LDQuODMgNS4xNyw4LjY0IDkuOTksMTAuMDIgdiA5LjMxIGMgLTIuMDEsMS40NiAtNS4wNyw0LjUzIC01LjA3LDguMSAwLDQuOTggNC4wOCw5LjAzIDkuMDUsOS4wMyA0Ljk4LDAgOS4wNSwtNC4wNSA5LjA1LC05LjAzIDAsLTMuNTMgLTMsLTYuNTcgLTUuMDEsLTguMDUgdiAtOS4zNiBjIDQuODIsLTEuMzggOC42MSwtNS4xOCA5Ljk4LC05Ljk5IGwgMTQuMSwwLjAxIHYgOS4yNiB6Ii8+JiN4YTsmI3hhOzxwYXRoIGlkPSJwYXRoODI4NjUiIGlua3NjYXBlOmNvbm5lY3Rvci1jdXJ2YXR1cmU9IjAiIHN0eWxlPSJmaWxsOiM1OWI0ZDkiIGQ9Im0gNTAuMTUsMzguOTMgYyAtNS44MiwwIC0xMC41NSw0LjczIC0xMC41NSwxMC41NSAwLDUuODIgNC43MywxMC41NSAxMC41NSwxMC41NSA1LjgxLDAgMTAuNTUsLTQuNzMgMTAuNTUsLTEwLjU1IDAsLTUuODIgLTQuNzQsLTEwLjU1IC0xMC41NSwtMTAuNTUgeiIvPiYjeGE7JiN4YTs8cGF0aCBpZD0icGF0aDgyODczIiBpbmtzY2FwZTpjb25uZWN0b3ItY3VydmF0dXJlPSIwIiBzdHlsZT0iZmlsbDojZmZmZmZmO2ZpbGwtb3BhY2l0eTowLjE1IiBkPSJNIDU2LjcsMi43MiBDIDU0Ljk1LDAuOTcgNTIuNjMsMCA1MC4xNSwwIDQ3LjY5LDAgNDUuMzYsMC45NyA0My42MSwyLjcyIEwgMi43MSw0My42MiBDIDAuOTksNDUuMzQgMCw0Ny43MiAwLDUwLjE2IDAsNTIuNTkgMC45OSw1NC45OCAyLjcxLDU2LjcgTCAyNS44Nyw3OS44NiA2OS40MywxNS40NSBaIi8+JiN4YTs8L3N2Zz4=;strokeColor=#BAC8D3;fontColor=#182E3E;fillColor=#B1DDF0;labelPosition=left;align=right;" parent="1" vertex="1">
          <mxGeometry x="646" y="515" width="39" height="39" as="geometry" />
        </mxCell>
        <mxCell id="F1OAkZORNfgH_RURmLhv-56" style="edgeStyle=orthogonalEdgeStyle;rounded=0;orthogonalLoop=1;jettySize=auto;html=1;entryX=0.005;entryY=0.63;entryDx=0;entryDy=0;entryPerimeter=0;strokeColor=#6c8ebf;fontColor=#FFFFFF;fillColor=#dae8fc;labelPosition=center;verticalLabelPosition=top;align=center;verticalAlign=bottom;exitX=0.5;exitY=1;exitDx=0;exitDy=0;" parent="1" source="F1OAkZORNfgH_RURmLhv-37" target="F1OAkZORNfgH_RURmLhv-48" edge="1">
          <mxGeometry relative="1" as="geometry" />
        </mxCell>
        <mxCell id="F1OAkZORNfgH_RURmLhv-89" value="" style="edgeLabel;html=1;align=center;verticalAlign=middle;resizable=0;points=[];strokeColor=#BAC8D3;fontColor=#182E3E;fillColor=#B1DDF0;" parent="F1OAkZORNfgH_RURmLhv-56" vertex="1" connectable="0">
          <mxGeometry x="-0.5346" relative="1" as="geometry">
            <mxPoint as="offset" />
          </mxGeometry>
        </mxCell>
        <mxCell id="F1OAkZORNfgH_RURmLhv-90" value="" style="edgeLabel;html=1;align=center;verticalAlign=middle;resizable=0;points=[];strokeColor=#BAC8D3;fontColor=#182E3E;fillColor=#B1DDF0;" parent="F1OAkZORNfgH_RURmLhv-56" vertex="1" connectable="0">
          <mxGeometry x="-0.3134" y="2" relative="1" as="geometry">
            <mxPoint as="offset" />
          </mxGeometry>
        </mxCell>
        <mxCell id="F1OAkZORNfgH_RURmLhv-91" value="" style="edgeLabel;html=1;align=center;verticalAlign=middle;resizable=0;points=[];strokeColor=#BAC8D3;fontColor=#182E3E;fillColor=#B1DDF0;" parent="F1OAkZORNfgH_RURmLhv-56" vertex="1" connectable="0">
          <mxGeometry x="-0.0179" y="-2" relative="1" as="geometry">
            <mxPoint x="-111" y="163" as="offset" />
          </mxGeometry>
        </mxCell>
        <mxCell id="F1OAkZORNfgH_RURmLhv-47" value="" style="group;fillColor=none;strokeColor=#6c8ebf;dashed=1;" parent="1" vertex="1" connectable="0">
          <mxGeometry x="697" y="-134" width="344" height="293" as="geometry" />
        </mxCell>
        <mxCell id="F1OAkZORNfgH_RURmLhv-48" value="&lt;div&gt;Ingress&lt;/div&gt;&lt;div&gt;with&lt;/div&gt;&lt;div&gt;Load Balancer&lt;/div&gt;" style="aspect=fixed;sketch=0;html=1;dashed=0;whitespace=wrap;verticalLabelPosition=middle;verticalAlign=middle;fillColor=#2875E2;strokeColor=#ffffff;points=[[0.005,0.63,0],[0.1,0.2,0],[0.9,0.2,0],[0.5,0,0],[0.995,0.63,0],[0.72,0.99,0],[0.5,1,0],[0.28,0.99,0]];shape=mxgraph.kubernetes.icon2;prIcon=ing;fontColor=#182E3E;labelPosition=right;align=left;" parent="1" vertex="1">
          <mxGeometry x="699" y="117" width="34.62" height="33.23" as="geometry" />
        </mxCell>
        <mxCell id="F1OAkZORNfgH_RURmLhv-50" value="Microservices/Workers" style="group;fillColor=none;strokeColor=#6c8ebf;dashed=1;movable=1;resizable=1;rotatable=1;deletable=1;editable=1;locked=0;connectable=1;container=0;" parent="1" vertex="1" connectable="0">
          <mxGeometry x="752" y="-127" width="268" height="225" as="geometry" />
        </mxCell>
        <mxCell id="F1OAkZORNfgH_RURmLhv-45" value="AKS" style="image;aspect=fixed;html=1;points=[];align=left;fontSize=12;image=img/lib/azure2/containers/Kubernetes_Services.svg;strokeColor=#BAC8D3;fontColor=#182E3E;fillColor=#B1DDF0;verticalAlign=middle;labelPosition=right;verticalLabelPosition=middle;labelBackgroundColor=none;" parent="1" vertex="1">
          <mxGeometry x="691" y="-136" width="29.46" height="26" as="geometry" />
        </mxCell>
        <mxCell id="F1OAkZORNfgH_RURmLhv-60" style="edgeStyle=orthogonalEdgeStyle;rounded=0;orthogonalLoop=1;jettySize=auto;html=1;exitX=0.5;exitY=0;exitDx=0;exitDy=0;exitPerimeter=0;entryX=-0.042;entryY=0.628;entryDx=0;entryDy=0;entryPerimeter=0;strokeColor=#6c8ebf;fontColor=#FFFFFF;fillColor=#dae8fc;" parent="1" source="F1OAkZORNfgH_RURmLhv-48" target="F1OAkZORNfgH_RURmLhv-55" edge="1">
          <mxGeometry relative="1" as="geometry">
            <Array as="points">
              <mxPoint x="716" y="55" />
            </Array>
          </mxGeometry>
        </mxCell>
        <mxCell id="F1OAkZORNfgH_RURmLhv-51" value="" style="group;fontColor=none;noLabel=1;" parent="1" vertex="1" connectable="0">
          <mxGeometry x="752" y="-127" width="405" height="225" as="geometry" />
        </mxCell>
        <mxCell id="F1OAkZORNfgH_RURmLhv-55" value="Gateway MS" style="html=1;verticalLabelPosition=bottom;align=center;labelBackgroundColor=#ffffff;verticalAlign=top;strokeWidth=2;strokeColor=#0080F0;shadow=0;dashed=0;shape=mxgraph.ios7.icons.cube;fontColor=#182E3E;fillColor=#B1DDF0;" parent="F1OAkZORNfgH_RURmLhv-51" vertex="1">
          <mxGeometry x="20.43577981651376" y="163" width="27.866972477064234" height="30" as="geometry" />
        </mxCell>
        <mxCell id="F1OAkZORNfgH_RURmLhv-69" style="edgeStyle=orthogonalEdgeStyle;rounded=0;orthogonalLoop=1;jettySize=auto;html=1;entryX=0.279;entryY=0.921;entryDx=0;entryDy=0;entryPerimeter=0;strokeColor=#6c8ebf;fontColor=#FFFFFF;fillColor=#dae8fc;" parent="F1OAkZORNfgH_RURmLhv-51" source="F1OAkZORNfgH_RURmLhv-55" target="F1OAkZORNfgH_RURmLhv-64" edge="1">
          <mxGeometry relative="1" as="geometry" />
        </mxCell>
        <mxCell id="F1OAkZORNfgH_RURmLhv-71" value="" style="edgeLabel;html=1;align=center;verticalAlign=middle;resizable=0;points=[];strokeColor=#BAC8D3;fontColor=#182E3E;fillColor=#B1DDF0;" parent="F1OAkZORNfgH_RURmLhv-69" vertex="1" connectable="0">
          <mxGeometry x="0.2651" y="3" relative="1" as="geometry">
            <mxPoint y="-1" as="offset" />
          </mxGeometry>
        </mxCell>
        <mxCell id="F1OAkZORNfgH_RURmLhv-70" style="edgeStyle=orthogonalEdgeStyle;rounded=0;orthogonalLoop=1;jettySize=auto;html=1;strokeColor=#6c8ebf;fontColor=#FFFFFF;fillColor=#dae8fc;" parent="F1OAkZORNfgH_RURmLhv-51" source="F1OAkZORNfgH_RURmLhv-55" edge="1">
          <mxGeometry relative="1" as="geometry">
            <mxPoint x="52.94724770642202" y="58" as="targetPoint" />
            <Array as="points">
              <mxPoint x="74.31192660550462" y="178" />
              <mxPoint x="74.31192660550462" y="58" />
            </Array>
          </mxGeometry>
        </mxCell>
        <mxCell id="F1OAkZORNfgH_RURmLhv-72" value="" style="edgeLabel;html=1;align=center;verticalAlign=middle;resizable=0;points=[];strokeColor=#BAC8D3;fontColor=#182E3E;fillColor=#B1DDF0;" parent="F1OAkZORNfgH_RURmLhv-70" vertex="1" connectable="0">
          <mxGeometry x="0.3031" y="3" relative="1" as="geometry">
            <mxPoint as="offset" />
          </mxGeometry>
        </mxCell>
        <mxCell id="F1OAkZORNfgH_RURmLhv-73" value="" style="edgeLabel;html=1;align=center;verticalAlign=middle;resizable=0;points=[];strokeColor=#BAC8D3;fontColor=#182E3E;fillColor=#B1DDF0;" parent="F1OAkZORNfgH_RURmLhv-70" vertex="1" connectable="0">
          <mxGeometry x="0.7987" relative="1" as="geometry">
            <mxPoint as="offset" />
          </mxGeometry>
        </mxCell>
        <mxCell id="F1OAkZORNfgH_RURmLhv-74" value="" style="edgeLabel;html=1;align=center;verticalAlign=middle;resizable=0;points=[];strokeColor=#BAC8D3;fontColor=#182E3E;fillColor=#B1DDF0;" parent="F1OAkZORNfgH_RURmLhv-70" vertex="1" connectable="0">
          <mxGeometry x="0.0016" relative="1" as="geometry">
            <mxPoint as="offset" />
          </mxGeometry>
        </mxCell>
        <mxCell id="F1OAkZORNfgH_RURmLhv-75" value="" style="edgeLabel;html=1;align=center;verticalAlign=middle;resizable=0;points=[];strokeColor=#BAC8D3;fontColor=#182E3E;fillColor=#B1DDF0;" parent="F1OAkZORNfgH_RURmLhv-70" vertex="1" connectable="0">
          <mxGeometry x="-0.2522" relative="1" as="geometry">
            <mxPoint as="offset" />
          </mxGeometry>
        </mxCell>
        <mxCell id="F1OAkZORNfgH_RURmLhv-76" style="edgeStyle=orthogonalEdgeStyle;rounded=0;orthogonalLoop=1;jettySize=auto;html=1;strokeColor=#6c8ebf;fontColor=#FFFFFF;fillColor=#dae8fc;entryX=0.501;entryY=1.057;entryDx=0;entryDy=0;entryPerimeter=0;" parent="F1OAkZORNfgH_RURmLhv-51" source="F1OAkZORNfgH_RURmLhv-55" target="F1OAkZORNfgH_RURmLhv-66" edge="1">
          <mxGeometry relative="1" as="geometry">
            <mxPoint x="104.96559633027526" y="131" as="targetPoint" />
            <Array as="points" />
          </mxGeometry>
        </mxCell>
        <mxCell id="F1OAkZORNfgH_RURmLhv-64" value="" style="html=1;verticalLabelPosition=bottom;align=center;labelBackgroundColor=#ffffff;verticalAlign=top;strokeWidth=2;strokeColor=#0080F0;shadow=0;dashed=0;shape=mxgraph.ios7.icons.cube;fontColor=#182E3E;fillColor=#B1DDF0;movable=0;resizable=0;rotatable=0;deletable=0;editable=0;locked=1;connectable=0;" parent="F1OAkZORNfgH_RURmLhv-51" vertex="1">
          <mxGeometry x="28.77293577981652" y="101" width="28.847477064220172" height="30" as="geometry" />
        </mxCell>
        <mxCell id="F1OAkZORNfgH_RURmLhv-65" value="" style="html=1;verticalLabelPosition=bottom;align=center;labelBackgroundColor=#ffffff;verticalAlign=top;strokeWidth=2;strokeColor=#0080F0;shadow=0;dashed=0;shape=mxgraph.ios7.icons.cube;fontColor=#182E3E;fillColor=#B1DDF0;movable=0;resizable=0;rotatable=0;deletable=0;editable=0;locked=1;connectable=0;" parent="F1OAkZORNfgH_RURmLhv-51" vertex="1">
          <mxGeometry x="28.77293577981652" y="43" width="28.847477064220172" height="30" as="geometry" />
        </mxCell>
        <mxCell id="F1OAkZORNfgH_RURmLhv-66" value="" style="html=1;verticalLabelPosition=bottom;align=center;labelBackgroundColor=#ffffff;verticalAlign=top;strokeWidth=2;strokeColor=#0080F0;shadow=0;dashed=0;shape=mxgraph.ios7.icons.cube;fontColor=#182E3E;fillColor=#B1DDF0;movable=0;resizable=0;rotatable=0;deletable=0;editable=0;locked=1;connectable=0;" parent="F1OAkZORNfgH_RURmLhv-51" vertex="1">
          <mxGeometry x="95.12213302752296" y="101" width="28.847477064220172" height="30" as="geometry" />
        </mxCell>
        <mxCell id="F1OAkZORNfgH_RURmLhv-79" value="" style="verticalLabelPosition=bottom;html=1;verticalAlign=top;align=center;strokeColor=none;fillColor=#00BEF2;shape=mxgraph.azure.worker_role;fontColor=#182E3E;movable=0;resizable=0;rotatable=0;deletable=0;editable=0;locked=1;connectable=0;" parent="F1OAkZORNfgH_RURmLhv-51" vertex="1">
          <mxGeometry x="185.51894495412847" y="108" width="28.847477064220172" height="23" as="geometry" />
        </mxCell>
        <mxCell id="F1OAkZORNfgH_RURmLhv-80" value="" style="verticalLabelPosition=bottom;html=1;verticalAlign=top;align=center;strokeColor=none;fillColor=#00BEF2;shape=mxgraph.azure.worker_role;fontColor=#182E3E;movable=0;resizable=0;rotatable=0;deletable=0;editable=0;locked=1;connectable=0;" parent="F1OAkZORNfgH_RURmLhv-51" vertex="1">
          <mxGeometry x="185.51894495412847" y="69" width="28.847477064220172" height="23" as="geometry" />
        </mxCell>
        <mxCell id="F1OAkZORNfgH_RURmLhv-81" value="" style="verticalLabelPosition=bottom;html=1;verticalAlign=top;align=center;strokeColor=none;fillColor=#00BEF2;shape=mxgraph.azure.worker_role;fontColor=#182E3E;movable=0;resizable=0;rotatable=0;deletable=0;editable=0;locked=1;connectable=0;" parent="F1OAkZORNfgH_RURmLhv-51" vertex="1">
          <mxGeometry x="185.51894495412847" y="35" width="28.847477064220172" height="23" as="geometry" />
        </mxCell>
        <mxCell id="ruwqJSLJR4seYNJ20cjO-1" value="Blob storage" style="verticalLabelPosition=bottom;html=1;verticalAlign=top;align=center;strokeColor=none;fillColor=#00BEF2;shape=mxgraph.azure.storage_blob;" vertex="1" parent="F1OAkZORNfgH_RURmLhv-51">
          <mxGeometry x="329" y="83" width="47" height="40" as="geometry" />
        </mxCell>
        <mxCell id="F1OAkZORNfgH_RURmLhv-86" value="Primary DB" style="shape=image;verticalLabelPosition=top;labelBackgroundColor=none;verticalAlign=bottom;aspect=fixed;imageAspect=0;image=data:image/svg+xml,PHN2ZyB4bWxuczpjYz0iaHR0cDovL2NyZWF0aXZlY29tbW9ucy5vcmcvbnMjIiB4bWxuczpkYz0iaHR0cDovL3B1cmwub3JnL2RjL2VsZW1lbnRzLzEuMS8iIHhtbG5zOmlua3NjYXBlPSJodHRwOi8vd3d3Lmlua3NjYXBlLm9yZy9uYW1lc3BhY2VzL2lua3NjYXBlIiB4bWxuczpyZGY9Imh0dHA6Ly93d3cudzMub3JnLzE5OTkvMDIvMjItcmRmLXN5bnRheC1ucyMiIHhtbG5zOnNvZGlwb2RpPSJodHRwOi8vc29kaXBvZGkuc291cmNlZm9yZ2UubmV0L0RURC9zb2RpcG9kaS0wLmR0ZCIgeG1sbnM6c3ZnPSJodHRwOi8vd3d3LnczLm9yZy8yMDAwL3N2ZyIgeG1sbnM9Imh0dHA6Ly93d3cudzMub3JnLzIwMDAvc3ZnIiB4bWxuczp4bGluaz0iaHR0cDovL3d3dy53My5vcmcvMTk5OS94bGluayIgdmVyc2lvbj0iMS4xIiBpZD0ic3ZnNzY2MjIiIGlua3NjYXBlOnZlcnNpb249IjAuOTIuMyAoMjQwNTU0NiwgMjAxOC0wMy0xMSkiIHNvZGlwb2RpOmRvY25hbWU9ImRhdGFfY29ubmVjdGlvbnMuc3ZnIiB4PSIwcHgiIHk9IjBweCIgdmlld0JveD0iMCAwIDE4LjE2IDI0LjA0IiBzdHlsZT0iZW5hYmxlLWJhY2tncm91bmQ6bmV3IDAgMCAxOC4xNiAyNC4wNDsiIHhtbDpzcGFjZT0icHJlc2VydmUiPiYjeGE7PHNvZGlwb2RpOm5hbWVkdmlldyBib3JkZXJjb2xvcj0iIzY2NjY2NiIgYm9yZGVyb3BhY2l0eT0iMSIgZml0LW1hcmdpbi1ib3R0b209IjAiIGZpdC1tYXJnaW4tbGVmdD0iMCIgZml0LW1hcmdpbi1yaWdodD0iMCIgZml0LW1hcmdpbi10b3A9IjAiIGdyaWR0b2xlcmFuY2U9IjEwIiBndWlkZXRvbGVyYW5jZT0iMTAiIGlkPSJuYW1lZHZpZXc3NjYyNCIgaW5rc2NhcGU6Y3VycmVudC1sYXllcj0ic3ZnNzY2MjIiIGlua3NjYXBlOmN4PSIxMy42MDI3NzEiIGlua3NjYXBlOmN5PSIxMi40OTI5OTMiIGlua3NjYXBlOnBhZ2VvcGFjaXR5PSIwIiBpbmtzY2FwZTpwYWdlc2hhZG93PSIyIiBpbmtzY2FwZTp3aW5kb3ctaGVpZ2h0PSIxMDE3IiBpbmtzY2FwZTp3aW5kb3ctbWF4aW1pemVkPSIxIiBpbmtzY2FwZTp3aW5kb3ctd2lkdGg9IjE5MjAiIGlua3NjYXBlOndpbmRvdy14PSItOCIgaW5rc2NhcGU6d2luZG93LXk9Ii04IiBpbmtzY2FwZTp6b29tPSIxOS4xMjI1MTEiIG9iamVjdHRvbGVyYW5jZT0iMTAiIHBhZ2Vjb2xvcj0iI2ZmZmZmZiIgc2hvd2dyaWQ9ImZhbHNlIj4mI3hhOwk8L3NvZGlwb2RpOm5hbWVkdmlldz4mI3hhOzxnIGlkPSJnNzY2MjAiIHRyYW5zZm9ybT0idHJhbnNsYXRlKDAsLTAuMDAxODYzOCkiPiYjeGE7CTx0aXRsZSBpZD0idGl0bGU3NjU3MCI+UGFnZS0xPC90aXRsZT4mI3hhOwk8ZyBpZD0iZ3JvdXA0NTY5LTEiPiYjeGE7CQk8dGl0bGUgaWQ9InRpdGxlNzY1NzIiPkRhdGEgQ29ubmVjdGlvbnM8L3RpdGxlPiYjeGE7CQk8ZyBpZD0ic2hhcGU0NTcwLTIiPiYjeGE7CQkJPHRpdGxlIGlkPSJ0aXRsZTc2NTc0Ij5TaGVldC40NTcwPC90aXRsZT4mI3hhOwkJCTxwYXRoIGlkPSJwYXRoNzY1NzYiIGlua3NjYXBlOmNvbm5lY3Rvci1jdXJ2YXR1cmU9IjAiIHN0eWxlPSJmaWxsOiMwMEJDRjI7IiBkPSJNMCwzLjMyYzAsMTcuNDUsMCwxNy40NSwwLDE3LjQ1ICAgICBjMCwxLjgsNC4xMywzLjI3LDkuMTgsMy4yN2MwLTIwLjcyLDAtMjAuNzIsMC0yMC43MkwwLDMuMzJ6Ii8+JiN4YTsJCTwvZz4mI3hhOwkJPGcgaWQ9InNoYXBlNDU3MS00IiB0cmFuc2Zvcm09InRyYW5zbGF0ZSg4Ljk4NDU3KSI+JiN4YTsJCQk8dGl0bGUgaWQ9InRpdGxlNzY1NzkiPlNoZWV0LjQ1NzE8L3RpdGxlPiYjeGE7CQkJPHBhdGggaWQ9InBhdGg3NjU4MSIgaW5rc2NhcGU6Y29ubmVjdG9yLWN1cnZhdHVyZT0iMCIgc3R5bGU9ImZpbGw6IzI5QzdGNDsiIGQ9Ik0wLDI0LjA0YzAuMTIsMCwwLjEyLDAsMC4xMiwwICAgICBjNS4wMSwwLDkuMDYtMS40Nyw5LjA2LTMuMjdjMC0xNy40NSwwLTE3LjQ1LDAtMTcuNDVDMCwzLjMyLDAsMy4zMiwwLDMuMzJWMjQuMDR6Ii8+JiN4YTsJCTwvZz4mI3hhOwkJPGcgaWQ9InNoYXBlNDU3Mi02IiB0cmFuc2Zvcm09InRyYW5zbGF0ZSgwLC0xNy4zOTgyKSI+JiN4YTsJCQk8dGl0bGUgaWQ9InRpdGxlNzY1ODQiPlNoZWV0LjQ1NzI8L3RpdGxlPiYjeGE7CQkJPHBhdGggaWQ9InBhdGg3NjU4NiIgaW5rc2NhcGU6Y29ubmVjdG9yLWN1cnZhdHVyZT0iMCIgc3R5bGU9ImZpbGw6I0ZGRkZGRjsiIGQ9Ik0wLDIwLjcyYzAtMS44Myw0LjA4LTMuMzIsOS4wOC0zLjMyICAgICBjNS4wMiwwLDkuMDgsMS40OSw5LjA4LDMuMzJjMCwxLjg1LTQuMDYsMy4zMi05LjA4LDMuMzJDNC4wOCwyNC4wNCwwLDIyLjU3LDAsMjAuNzJ6Ii8+JiN4YTsJCTwvZz4mI3hhOwkJPGcgaWQ9InNoYXBlNDU3My04IiB0cmFuc2Zvcm09InRyYW5zbGF0ZSgxLjk1MzE3LC0xOC43NjY2KSI+JiN4YTsJCQk8dGl0bGUgaWQ9InRpdGxlNzY1ODkiPlNoZWV0LjQ1NzM8L3RpdGxlPiYjeGE7CQkJPHBhdGggaWQ9InBhdGg3NjU5MSIgaW5rc2NhcGU6Y29ubmVjdG9yLWN1cnZhdHVyZT0iMCIgc3R5bGU9ImZpbGw6Izg1QjM1MTsiIGQ9Ik0wLDIxLjg5YzAtMS4xOCwzLjItMi4xNSw3LjEzLTIuMTUgICAgIGMzLjk0LDAsNy4xMywwLjk3LDcuMTMsMi4xNWMwLDEuMi0zLjE5LDIuMTUtNy4xMywyLjE1QzMuMiwyNC4wNCwwLDIzLjA5LDAsMjEuODl6Ii8+JiN4YTsJCTwvZz4mI3hhOwkJPGcgaWQ9InNoYXBlNDU3NC0xMCIgdHJhbnNmb3JtPSJ0cmFuc2xhdGUoMS45NTMxNywtMTkuNTQ4NikiPiYjeGE7CQkJPHRpdGxlIGlkPSJ0aXRsZTc2NTk0Ij5TaGVldC40NTc0PC90aXRsZT4mI3hhOwkJCTxwYXRoIGlkPSJwYXRoNzY1OTYiIGlua3NjYXBlOmNvbm5lY3Rvci1jdXJ2YXR1cmU9IjAiIHN0eWxlPSJmaWxsOiNCQUM4NEE7IiBkPSJNMTIuNzYsMjQuMDRjMC45Mi0wLjM5LDEuNS0wLjgxLDEuNS0xLjMxICAgICBjMC0xLjIzLTMuMi0yLjItNy4xMy0yLjJTMCwyMS41LDAsMjIuNzNjMCwwLjUsMC41OSwwLjkyLDEuNTEsMS4zMWMxLjMxLTAuNSwzLjMxLTAuODUsNS42Mi0wLjg1ICAgICBDOS40MSwyMy4xOSwxMS40NSwyMy41NCwxMi43NiwyNC4wNHoiLz4mI3hhOwkJPC9nPiYjeGE7CQk8ZyBpZD0ic2hhcGU0NTc1LTEyIiB0cmFuc2Zvcm09InRyYW5zbGF0ZSgyLjUzOTEyLC02LjA2MDA2KSI+JiN4YTsJCQk8dGl0bGUgaWQ9InRpdGxlNzY1OTkiPlNoZWV0LjQ1NzU8L3RpdGxlPiYjeGE7CQkJPHBhdGggaWQ9InBhdGg3NjYwMSIgaW5rc2NhcGU6Y29ubmVjdG9yLWN1cnZhdHVyZT0iMCIgc3R5bGU9ImZpbGw6I0ZGRkZGRjsiIGQ9Ik0xMi4zNSwyMy40MmMtMC41LDAuNDMtMS4xMiwwLjYyLTEuOTcsMC42MiAgICAgYy0yLjgyLDAtMi44MiwwLTIuODIsMGMwLTcuNDIsMC03LjQyLDAtNy40MmMyLjY3LDAsMi42NywwLDIuNjcsMGMwLjg1LDAsMS40NiwwLjEyLDEuOTMsMC40N2MwLjQzLDAuMjcsMC42MiwwLjcsMC42MiwxLjI1ICAgICBjMCwwLjQzLTAuMTYsMC43OC0wLjQ2LDEuMTRjLTAuMjcsMC4yMy0wLjU5LDAuNDItMC45NywwLjU1bDAsMGMwLjU0LDAuMDcsMC45NywwLjI2LDEuMjcsMC42MmMwLjMyLDAuMzIsMC40NywwLjcxLDAuNDcsMS4xNyAgICAgQzEzLjA5LDIyLjQ4LDEyLjgyLDIzLjAzLDEyLjM1LDIzLjQyeiBNNS40NywyMi45OWMtMC43LDAuNzEtMS42NywxLjA1LTIuODMsMS4wNWMtMi42NCwwLTIuNjQsMC0yLjY0LDBjMC03LjQyLDAtNy40MiwwLTcuNDIgICAgIGMyLjY0LDAsMi42NCwwLDIuNjQsMGMyLjYsMCwzLjksMS4xNywzLjksMy42QzYuNTQsMjEuMzksNi4yLDIyLjI5LDUuNDcsMjIuOTl6Ii8+JiN4YTsJCTwvZz4mI3hhOwkJPGcgaWQ9InNoYXBlNDU3Ni0xNCIgdHJhbnNmb3JtPSJ0cmFuc2xhdGUoNC4xMDE2NSwtNy40Mjg0NikiPiYjeGE7CQkJPHRpdGxlIGlkPSJ0aXRsZTc2NjA0Ij5TaGVldC40NTc2PC90aXRsZT4mI3hhOwkJCTxwYXRoIGlkPSJwYXRoNzY2MDYiIGlua3NjYXBlOmNvbm5lY3Rvci1jdXJ2YXR1cmU9IjAiIHN0eWxlPSJmaWxsOiMwMEJDRjI7IiBkPSJNMC44NywxOS4zNWMtMC44NywwLTAuODcsMC0wLjg3LDAgICAgIGMwLDQuNjksMCw0LjY5LDAsNC42OWMwLjg3LDAsMC44NywwLDAuODcsMGMwLjc4LDAsMS4zOS0wLjIzLDEuOC0wLjY0YzAuNDYtMC40MywwLjY1LTEuMDIsMC42NS0xLjc1YzAtMC43LTAuMTktMS4yNS0wLjYxLTEuNjcgICAgIEMyLjI2LDE5LjYsMS42NSwxOS4zNSwwLjg3LDE5LjM1eiIvPiYjeGE7CQk8L2c+JiN4YTsJCTxnIGlkPSJzaGFwZTQ1NzctMTYiIHRyYW5zZm9ybT0idHJhbnNsYXRlKDExLjcxOSwtMTAuMzYwNykiPiYjeGE7CQkJPHRpdGxlIGlkPSJ0aXRsZTc2NjA5Ij5TaGVldC40NTc3PC90aXRsZT4mI3hhOwkJCTxwYXRoIGlkPSJwYXRoNzY2MTEiIGlua3NjYXBlOmNvbm5lY3Rvci1jdXJ2YXR1cmU9IjAiIHN0eWxlPSJmaWxsOiMyOUM3RjQ7IiBkPSJNMS42MiwyMy44MWMwLjIxLTAuMTksMC4zMy0wLjQzLDAuMzMtMC42OSAgICAgYzAtMC41NS0wLjQxLTAuODMtMS4yOC0wLjgzYy0wLjY3LDAtMC42NywwLTAuNjcsMGMwLDEuNzUsMCwxLjc1LDAsMS43NWMwLjc5LDAsMC43OSwwLDAuNzksMEMxLjEyLDI0LjA0LDEuNDIsMjMuOTcsMS42MiwyMy44MSAgICAgeiIvPiYjeGE7CQk8L2c+JiN4YTsJCTxnIGlkPSJzaGFwZTQ1NzgtMTgiIHRyYW5zZm9ybT0idHJhbnNsYXRlKDExLjcxOSwtNy4yMzI5NykiPiYjeGE7CQkJPHRpdGxlIGlkPSJ0aXRsZTc2NjE0Ij5TaGVldC40NTc4PC90aXRsZT4mI3hhOwkJCTxwYXRoIGlkPSJwYXRoNzY2MTYiIGlua3NjYXBlOmNvbm5lY3Rvci1jdXJ2YXR1cmU9IjAiIHN0eWxlPSJmaWxsOiMyOUM3RjQ7IiBkPSJNMS44MSwyMi4zM2MtMC4yLTAuMTUtMC41LTAuMjQtMC44OC0wLjI0ICAgICBjLTAuOTMsMC0wLjkzLDAtMC45MywwYzAsMS45NSwwLDEuOTUsMCwxLjk1YzAuOTMsMCwwLjkzLDAsMC45MywwYzAuMzgsMCwwLjY4LTAuMDcsMC44OC0wLjI2YzAuMjMtMC4yLDAuMzQtMC40MywwLjM0LTAuNzUgICAgIEMyLjE1LDIyLjc2LDIuMDQsMjIuNTMsMS44MSwyMi4zM3oiLz4mI3hhOwkJPC9nPiYjeGE7CTwvZz4mI3hhOzwvZz4mI3hhOzwvc3ZnPg==;strokeColor=#BAC8D3;fontColor=#182E3E;fillColor=#B1DDF0;labelPosition=center;align=center;" parent="1" vertex="1">
          <mxGeometry x="1090" y="164" width="42" height="55" as="geometry" />
        </mxCell>
        <mxCell id="F1OAkZORNfgH_RURmLhv-88" value="Key Vault" style="image;aspect=fixed;html=1;points=[];align=center;fontSize=12;image=img/lib/azure2/security/Key_Vaults.svg;strokeColor=#BAC8D3;fontColor=#182E3E;fillColor=#B1DDF0;" parent="1" vertex="1">
          <mxGeometry x="808" y="173" width="37" height="37" as="geometry" />
        </mxCell>
        <mxCell id="F1OAkZORNfgH_RURmLhv-92" value="Front Door&lt;div&gt;routes traffic&lt;/div&gt;&lt;div&gt;to primary region&lt;/div&gt;" style="text;html=1;align=center;verticalAlign=middle;resizable=0;points=[];autosize=1;strokeColor=none;fillColor=none;fontColor=#182E3E;" parent="1" vertex="1">
          <mxGeometry x="422" y="104" width="108" height="55" as="geometry" />
        </mxCell>
        <mxCell id="F1OAkZORNfgH_RURmLhv-93" value="Redis cache" style="shape=image;verticalLabelPosition=bottom;labelBackgroundColor=#ffffff;verticalAlign=top;aspect=fixed;imageAspect=0;image=data:image/svg+xml,PHN2ZyB4bWxuczpjYz0iaHR0cDovL2NyZWF0aXZlY29tbW9ucy5vcmcvbnMjIiB4bWxuczpkYz0iaHR0cDovL3B1cmwub3JnL2RjL2VsZW1lbnRzLzEuMS8iIHhtbG5zOmlua3NjYXBlPSJodHRwOi8vd3d3Lmlua3NjYXBlLm9yZy9uYW1lc3BhY2VzL2lua3NjYXBlIiB4bWxuczpyZGY9Imh0dHA6Ly93d3cudzMub3JnLzE5OTkvMDIvMjItcmRmLXN5bnRheC1ucyMiIHhtbG5zOnNvZGlwb2RpPSJodHRwOi8vc29kaXBvZGkuc291cmNlZm9yZ2UubmV0L0RURC9zb2RpcG9kaS0wLmR0ZCIgeG1sbnM6c3ZnPSJodHRwOi8vd3d3LnczLm9yZy8yMDAwL3N2ZyIgeG1sbnM9Imh0dHA6Ly93d3cudzMub3JnLzIwMDAvc3ZnIiB4bWxuczp4bGluaz0iaHR0cDovL3d3dy53My5vcmcvMTk5OS94bGluayIgdmVyc2lvbj0iMS4xIiBpZD0ic3ZnOTMyMDEiIGlua3NjYXBlOnZlcnNpb249IjAuOTIuMyAoMjQwNTU0NiwgMjAxOC0wMy0xMSkiIHNvZGlwb2RpOmRvY25hbWU9InJlZGlzX2NhY2hlXzEuc3ZnIiB4PSIwcHgiIHk9IjBweCIgdmlld0JveD0iMCAwIDM3LjUxIDMxLjYiIHN0eWxlPSJlbmFibGUtYmFja2dyb3VuZDpuZXcgMCAwIDM3LjUxIDMxLjY7IiB4bWw6c3BhY2U9InByZXNlcnZlIj4mI3hhOzxzb2RpcG9kaTpuYW1lZHZpZXcgYm9yZGVyY29sb3I9IiM2NjY2NjYiIGJvcmRlcm9wYWNpdHk9IjEiIGZpdC1tYXJnaW4tYm90dG9tPSIwIiBmaXQtbWFyZ2luLWxlZnQ9IjAiIGZpdC1tYXJnaW4tcmlnaHQ9IjAiIGZpdC1tYXJnaW4tdG9wPSIwIiBncmlkdG9sZXJhbmNlPSIxMCIgZ3VpZGV0b2xlcmFuY2U9IjEwIiBpZD0ibmFtZWR2aWV3OTMyMDMiIGlua3NjYXBlOmN1cnJlbnQtbGF5ZXI9InN2ZzkzMjAxIiBpbmtzY2FwZTpjeD0iMzMuNTI0MjM1IiBpbmtzY2FwZTpjeT0iMTkuNzUxMjkxIiBpbmtzY2FwZTpwYWdlb3BhY2l0eT0iMCIgaW5rc2NhcGU6cGFnZXNoYWRvdz0iMiIgaW5rc2NhcGU6d2luZG93LWhlaWdodD0iMTAxNyIgaW5rc2NhcGU6d2luZG93LW1heGltaXplZD0iMSIgaW5rc2NhcGU6d2luZG93LXdpZHRoPSIxOTIwIiBpbmtzY2FwZTp3aW5kb3cteD0iLTgiIGlua3NjYXBlOndpbmRvdy15PSItOCIgaW5rc2NhcGU6em9vbT0iMTMuODg5MzQ4IiBvYmplY3R0b2xlcmFuY2U9IjEwIiBwYWdlY29sb3I9IiNmZmZmZmYiIHNob3dncmlkPSJmYWxzZSI+JiN4YTsJPC9zb2RpcG9kaTpuYW1lZHZpZXc+JiN4YTs8ZyBpZD0iZzkzMTk5IiB0cmFuc2Zvcm09InRyYW5zbGF0ZSgtMC43NDY3NjM4LC0wLjc1MTYyNSkiPiYjeGE7CTx0aXRsZSBpZD0idGl0bGU5MzExNSI+UGFnZS0xPC90aXRsZT4mI3hhOwk8ZyBpZD0iZ3JvdXA0OTc3LTEiIHRyYW5zZm9ybT0idHJhbnNsYXRlKDAuNDA3MjksLTAuNjA5Mzc1KSI+JiN4YTsJCTx0aXRsZSBpZD0idGl0bGU5MzExNyI+UmVkaXMgQ2FjaGUgIzE8L3RpdGxlPiYjeGE7CQk8ZyBpZD0iZ3JvdXA0OTc4LTIiPiYjeGE7CQkJPHRpdGxlIGlkPSJ0aXRsZTkzMTE5Ij5TaGVldC40OTc4PC90aXRsZT4mI3hhOwkJCTxnIGlkPSJzaGFwZTQ5NzktMyIgdHJhbnNmb3JtPSJ0cmFuc2xhdGUoMC4yMzcpIj4mI3hhOwkJCQk8dGl0bGUgaWQ9InRpdGxlOTMxMjEiPlNoZWV0LjQ5Nzk8L3RpdGxlPiYjeGE7CQkJCTxwYXRoIGlkPSJwYXRoOTMxMjMiIGlua3NjYXBlOmNvbm5lY3Rvci1jdXJ2YXR1cmU9IjAiIHN0eWxlPSJmaWxsOiNCQTE0MUE7IiBkPSJNMC4xMSwyNS4xOWMtMC4wNiwwLjQsMC4yOCwwLjgsMS4wMiwxLjExICAgICAgbDE1LjI0LDYuMjRjMS4zNywwLjU2LDMuNiwwLjU2LDQuOTcsMGwxNS4yNC02LjI0YzAuNzQtMC4zMSwxLjA4LTAuNzEsMS4wMi0xLjExdi0zLjU4YzAuMDUsMC4zOS0wLjI5LDAuNzktMS4wMiwxLjA5ICAgICAgbC0xNS4yNCw2LjI0Yy0xLjM3LDAuNTYtMy42LDAuNTYtNC45NywwTDEuMTMsMjIuN2MtMC44LTAuMzMtMS4xMy0wLjc4LTEtMS4yTDAuMTEsMjUuMTl6Ii8+JiN4YTsJCQk8L2c+JiN4YTsJCQk8ZyBpZD0ic2hhcGU0OTgwLTUiIHRyYW5zZm9ybT0idHJhbnNsYXRlKDAsLTMuNikiPiYjeGE7CQkJCTx0aXRsZSBpZD0idGl0bGU5MzEyNiI+U2hlZXQuNDk4MDwvdGl0bGU+JiN4YTsJCQkJPHBhdGggaWQ9InBhdGg5MzEyOCIgaW5rc2NhcGU6Y29ubmVjdG9yLWN1cnZhdHVyZT0iMCIgc3R5bGU9ImZpbGw6I0JBMTQxQTsiIGQ9Ik0zNi44MSwyNC4yNmMxLjM4LDAuNTcsMS4zOCwxLjQ4LDAsMi4wNCAgICAgIGwtMTUuMjMsNi4yNGMtMS4zNywwLjU2LTMuNiwwLjU2LTQuOTcsMEwxLjM3LDI2LjNDMCwyNS43NCwwLDI0LjgyLDEuMzcsMjQuMjZsMTUuMjQtNi4yNGMxLjM3LTAuNTYsMy42LTAuNTYsNC45NywwICAgICAgTDM2LjgxLDI0LjI2eiIvPiYjeGE7CQkJPC9nPiYjeGE7CQk8L2c+JiN4YTsJCTxnIGlkPSJncm91cDQ5ODEtNyIgdHJhbnNmb3JtPSJ0cmFuc2xhdGUoMCwtNi4zMTk1KSI+JiN4YTsJCQk8dGl0bGUgaWQ9InRpdGxlOTMxMzIiPlNoZWV0LjQ5ODE8L3RpdGxlPiYjeGE7CQkJPGcgaWQ9InNoYXBlNDk4Mi04IiB0cmFuc2Zvcm09InRyYW5zbGF0ZSgwLjIzNykiPiYjeGE7CQkJCTx0aXRsZSBpZD0idGl0bGU5MzEzNCI+U2hlZXQuNDk4MjwvdGl0bGU+JiN4YTsJCQkJPHBhdGggaWQ9InBhdGg5MzEzNiIgaW5rc2NhcGU6Y29ubmVjdG9yLWN1cnZhdHVyZT0iMCIgc3R5bGU9ImZpbGw6I0JBMTQxQTsiIGQ9Ik0wLjExLDI1LjE5Yy0wLjA2LDAuNCwwLjI4LDAuOCwxLjAyLDEuMTEgICAgICBsMTUuMjQsNi4yNGMxLjM3LDAuNTYsMy42LDAuNTYsNC45NywwbDE1LjI0LTYuMjRjMC43NC0wLjMxLDEuMDgtMC43MSwxLjAyLTEuMTF2LTMuNThjMC4wNSwwLjM5LTAuMjksMC43OS0xLjAyLDEuMDkgICAgICBsLTE1LjI0LDYuMjRjLTEuMzcsMC41Ni0zLjYsMC41Ni00Ljk3LDBMMS4xMywyMi43Yy0wLjgtMC4zMy0xLjEzLTAuNzgtMS0xLjJMMC4xMSwyNS4xOXoiLz4mI3hhOwkJCTwvZz4mI3hhOwkJCTxnIGlkPSJzaGFwZTQ5ODMtMTAiIHRyYW5zZm9ybT0idHJhbnNsYXRlKDAsLTMuNikiPiYjeGE7CQkJCTx0aXRsZSBpZD0idGl0bGU5MzEzOSI+U2hlZXQuNDk4MzwvdGl0bGU+JiN4YTsJCQkJPHBhdGggaWQ9InBhdGg5MzE0MSIgaW5rc2NhcGU6Y29ubmVjdG9yLWN1cnZhdHVyZT0iMCIgc3R5bGU9ImZpbGw6I0JBMTQxQTsiIGQ9Ik0zNi44MSwyNC4yNmMxLjM4LDAuNTcsMS4zOCwxLjQ4LDAsMi4wNCAgICAgIGwtMTUuMjMsNi4yNGMtMS4zNywwLjU2LTMuNiwwLjU2LTQuOTcsMEwxLjM3LDI2LjNDMCwyNS43NCwwLDI0LjgyLDEuMzcsMjQuMjZsMTUuMjQtNi4yNGMxLjM3LTAuNTYsMy42LTAuNTYsNC45NywwICAgICAgTDM2LjgxLDI0LjI2eiIvPiYjeGE7CQkJPC9nPiYjeGE7CQk8L2c+JiN4YTsJCTxnIGlkPSJncm91cDQ5ODQtMTIiPiYjeGE7CQkJPHRpdGxlIGlkPSJ0aXRsZTkzMTQ1Ij5TaGVldC40OTg0PC90aXRsZT4mI3hhOwkJCTxnIGlkPSJzaGFwZTQ5ODUtMTMiIHRyYW5zZm9ybT0idHJhbnNsYXRlKDAuMjM3LC0xMi42MzkpIj4mI3hhOwkJCQk8dGl0bGUgaWQ9InRpdGxlOTMxNDciPlNoZWV0LjQ5ODU8L3RpdGxlPiYjeGE7CQkJCTxwYXRoIGlkPSJwYXRoOTMxNDkiIGlua3NjYXBlOmNvbm5lY3Rvci1jdXJ2YXR1cmU9IjAiIHN0eWxlPSJmaWxsOiNCQTE0MUE7IiBkPSJNMC4xMSwyNS4xOWMtMC4wNiwwLjQsMC4yOCwwLjgsMS4wMiwxLjExICAgICAgbDE1LjI0LDYuMjRjMS4zNywwLjU2LDMuNiwwLjU2LDQuOTcsMGwxNS4yNC02LjI0YzAuNzQtMC4zMSwxLjA4LTAuNzEsMS4wMi0xLjExdi0zLjU4YzAuMDUsMC4zOS0wLjI5LDAuNzktMS4wMiwxLjA5ICAgICAgbC0xNS4yNCw2LjI0Yy0xLjM3LDAuNTYtMy42LDAuNTYtNC45NywwTDEuMTMsMjIuN2MtMC44LTAuMzMtMS4xMy0wLjc4LTEtMS4yTDAuMTEsMjUuMTl6Ii8+JiN4YTsJCQk8L2c+JiN4YTsJCQk8ZyBpZD0ic2hhcGU0OTg2LTE1IiB0cmFuc2Zvcm09InRyYW5zbGF0ZSgwLjIzNykiPiYjeGE7CQkJCTx0aXRsZSBpZD0idGl0bGU5MzE1MiI+U2hlZXQuNDk4NjwvdGl0bGU+JiN4YTsJCQkJPHBhdGggaWQ9InBhdGg5MzE1NCIgaW5rc2NhcGU6Y29ubmVjdG9yLWN1cnZhdHVyZT0iMCIgc3R5bGU9ImZpbGw6IzFFMUUxRTtmaWxsLW9wYWNpdHk6MC4yNTsiIGQ9Ik0wLjExLDI1LjE5ICAgICAgYy0wLjA2LDAuNCwwLjI4LDAuOCwxLjAyLDEuMTFsMTUuMjQsNi4yNGMxLjM3LDAuNTYsMy42LDAuNTYsNC45NywwbDE1LjI0LTYuMjRjMC43NC0wLjMxLDEuMDgtMC43MSwxLjAyLTEuMTF2LTMuNTggICAgICBjMC4wNSwwLjM5LTAuMjksMC43OS0xLjAyLDEuMDlsLTE1LjI0LDYuMjRjLTEuMzcsMC41Ni0zLjYsMC41Ni00Ljk3LDBMMS4xMywyMi43Yy0wLjgtMC4zMy0xLjEzLTAuNzgtMS0xLjJMMC4xMSwyNS4xOXoiLz4mI3hhOwkJCTwvZz4mI3hhOwkJCTxnIGlkPSJzaGFwZTQ5ODctMTciIHRyYW5zZm9ybT0idHJhbnNsYXRlKDAuMjM3LC02LjMxOTUpIj4mI3hhOwkJCQk8dGl0bGUgaWQ9InRpdGxlOTMxNTciPlNoZWV0LjQ5ODc8L3RpdGxlPiYjeGE7CQkJCTxwYXRoIGlkPSJwYXRoOTMxNTkiIGlua3NjYXBlOmNvbm5lY3Rvci1jdXJ2YXR1cmU9IjAiIHN0eWxlPSJmaWxsOiMxRTFFMUU7ZmlsbC1vcGFjaXR5OjAuMjU7IiBkPSJNMC4xMSwyNS4xOSAgICAgIGMtMC4wNiwwLjQsMC4yOCwwLjgsMS4wMiwxLjExbDE1LjI0LDYuMjRjMS4zNywwLjU2LDMuNiwwLjU2LDQuOTcsMGwxNS4yNC02LjI0YzAuNzQtMC4zMSwxLjA4LTAuNzEsMS4wMi0xLjExdi0zLjU4ICAgICAgYzAuMDUsMC4zOS0wLjI5LDAuNzktMS4wMiwxLjA5bC0xNS4yNCw2LjI0Yy0xLjM3LDAuNTYtMy42LDAuNTYtNC45NywwTDEuMTMsMjIuN2MtMC44LTAuMzMtMS4xMy0wLjc4LTEtMS4yTDAuMTEsMjUuMTl6Ii8+JiN4YTsJCQk8L2c+JiN4YTsJCQk8ZyBpZD0ic2hhcGU0OTg4LTE5IiB0cmFuc2Zvcm09InRyYW5zbGF0ZSgwLjIzNywtMTIuNjM5KSI+JiN4YTsJCQkJPHRpdGxlIGlkPSJ0aXRsZTkzMTYyIj5TaGVldC40OTg4PC90aXRsZT4mI3hhOwkJCQk8cGF0aCBpZD0icGF0aDkzMTY0IiBpbmtzY2FwZTpjb25uZWN0b3ItY3VydmF0dXJlPSIwIiBzdHlsZT0iZmlsbDojMUUxRTFFO2ZpbGwtb3BhY2l0eTowLjI1OyIgZD0iTTAuMTEsMjUuMTkgICAgICBjLTAuMDYsMC40LDAuMjgsMC44LDEuMDIsMS4xMWwxNS4yNCw2LjI0YzEuMzcsMC41NiwzLjYsMC41Niw0Ljk3LDBsMTUuMjQtNi4yNGMwLjc0LTAuMzEsMS4wOC0wLjcxLDEuMDItMS4xMXYtMy41OCAgICAgIGMwLjA1LDAuMzktMC4yOSwwLjc5LTEuMDIsMS4wOWwtMTUuMjQsNi4yNGMtMS4zNywwLjU2LTMuNiwwLjU2LTQuOTcsMEwxLjEzLDIyLjdjLTAuOC0wLjMzLTEuMTMtMC43OC0xLTEuMkwwLjExLDI1LjE5eiIvPiYjeGE7CQkJPC9nPiYjeGE7CQkJPGcgaWQ9InNoYXBlNDk4OS0yMSIgdHJhbnNmb3JtPSJ0cmFuc2xhdGUoMCwtMTYuMjM5KSI+JiN4YTsJCQkJPHRpdGxlIGlkPSJ0aXRsZTkzMTY3Ij5TaGVldC40OTg5PC90aXRsZT4mI3hhOwkJCQk8cGF0aCBpZD0icGF0aDkzMTY5IiBpbmtzY2FwZTpjb25uZWN0b3ItY3VydmF0dXJlPSIwIiBzdHlsZT0iZmlsbDojQkExNDFBOyIgZD0iTTM2LjgxLDI0LjI2YzEuMzgsMC41NywxLjM4LDEuNDgsMCwyLjA0ICAgICAgbC0xNS4yMyw2LjI0Yy0xLjM3LDAuNTYtMy42LDAuNTYtNC45NywwTDEuMzcsMjYuM0MwLDI1Ljc0LDAsMjQuODIsMS4zNywyNC4yNmwxNS4yNC02LjI0YzEuMzctMC41NiwzLjYtMC41Niw0Ljk3LDAgICAgICBMMzYuODEsMjQuMjZ6Ii8+JiN4YTsJCQk8L2c+JiN4YTsJCTwvZz4mI3hhOwkJPGcgaWQ9InNoYXBlNDk5MC0yMyIgdHJhbnNmb3JtPSJ0cmFuc2xhdGUoNi4zNjE1LC0yMi4xMTIzKSI+JiN4YTsJCQk8dGl0bGUgaWQ9InRpdGxlOTMxNzMiPlNoZWV0LjQ5OTA8L3RpdGxlPiYjeGE7CQkJPHBhdGggaWQ9InBhdGg5MzE3NSIgaW5rc2NhcGU6Y29ubmVjdG9yLWN1cnZhdHVyZT0iMCIgc3R5bGU9ImZpbGw6I0ZGRkZGRjsiIGQ9Ik04LjA0LDMyLjMzYy0xLjc0LDAuNzctNC41NiwwLjc3LTYuMywwICAgICBDMCwzMS41NiwwLDMwLjMsMS43NCwyOS41M2MxLjc0LTAuNzcsNC41Ni0wLjc3LDYuMywwQzkuNzcsMzAuMyw5Ljc4LDMxLjU2LDguMDQsMzIuMzN6Ii8+JiN4YTsJCTwvZz4mI3hhOwkJPGcgaWQ9InNoYXBlNDk5MS0yNSIgdHJhbnNmb3JtPSJ0cmFuc2xhdGUoMTMuMjE4LC0xNy45ODgpIj4mI3hhOwkJCTx0aXRsZSBpZD0idGl0bGU5MzE3OCI+U2hlZXQuNDk5MTwvdGl0bGU+JiN4YTsJCQk8cGF0aCBpZD0icGF0aDkzMTgwIiBpbmtzY2FwZTpjb25uZWN0b3ItY3VydmF0dXJlPSIwIiBzdHlsZT0iZmlsbDojRkZGRkZGOyIgZD0iTTAsMzAuMmw4LjkyLTEuMDZMNi41MywzMy4xTDAsMzAuMnoiLz4mI3hhOwkJPC9nPiYjeGE7CQk8ZyBpZD0ic2hhcGU0OTkyLTI3IiB0cmFuc2Zvcm09InRyYW5zbGF0ZSgyMS44NjQsLTIxLjg5MSkiPiYjeGE7CQkJPHRpdGxlIGlkPSJ0aXRsZTkzMTgzIj5TaGVldC40OTkyPC90aXRsZT4mI3hhOwkJCTxwYXRoIGlkPSJwYXRoOTMxODUiIGlua3NjYXBlOmNvbm5lY3Rvci1jdXJ2YXR1cmU9IjAiIHN0eWxlPSJmaWxsOiMxRTFFMUU7ZmlsbC1vcGFjaXR5OjAuMjU7IiBkPSJNNS4zNCwzMy4xTDAsMzAuNzNsNS4zNC0yLjM3ICAgICBsNS4zMywyLjM3TDUuMzQsMzMuMXoiLz4mI3hhOwkJPC9nPiYjeGE7CQk8ZyBpZD0ic2hhcGU0OTkzLTI5IiB0cmFuc2Zvcm09InRyYW5zbGF0ZSgyMS44NjQsLTIxLjg5MSkiPiYjeGE7CQkJPHRpdGxlIGlkPSJ0aXRsZTkzMTg4Ij5TaGVldC40OTkzPC90aXRsZT4mI3hhOwkJCTxwYXRoIGlkPSJwYXRoOTMxOTAiIGlua3NjYXBlOmNvbm5lY3Rvci1jdXJ2YXR1cmU9IjAiIHN0eWxlPSJmaWxsOiMxRTFFMUU7ZmlsbC1vcGFjaXR5OjAuMjU7IiBkPSJNNS4zNCwzMy4xTDAsMzAuNzNsNS4zNC0yLjM3ICAgICBWMzMuMXoiLz4mI3hhOwkJPC9nPiYjeGE7CQk8ZyBpZD0ic2hhcGU0OTk0LTMxIiB0cmFuc2Zvcm09InRyYW5zbGF0ZSgxMy44OTY3LC0yNS42MTU1KSI+JiN4YTsJCQk8dGl0bGUgaWQ9InRpdGxlOTMxOTMiPlNoZWV0LjQ5OTQ8L3RpdGxlPiYjeGE7CQkJPHBhdGggaWQ9InBhdGg5MzE5NSIgaW5rc2NhcGU6Y29ubmVjdG9yLWN1cnZhdHVyZT0iMCIgc3R5bGU9ImZpbGw6I0ZGRkZGRjsiIGQ9Ik0zLjQ4LDMxLjU1TDAsMzEuMjRsMy4wOS0wLjc4bC0wLjQtMS41NyAgICAgbDIuNjIsMS4wN2wzLjI0LTAuNjZsLTEuNDgsMS40NGwyLjQxLDEuMTdsLTMuNTQtMC4xOEw0LjE5LDMzLjFMMy40OCwzMS41NXoiLz4mI3hhOwkJPC9nPiYjeGE7CTwvZz4mI3hhOzwvZz4mI3hhOzwvc3ZnPg==;strokeColor=#BAC8D3;fontColor=#182E3E;fillColor=#B1DDF0;" parent="1" vertex="1">
          <mxGeometry x="883" y="170.5" width="38" height="32" as="geometry" />
        </mxCell>
        <mxCell id="F1OAkZORNfgH_RURmLhv-94" value="&lt;div&gt;Dignostics&lt;/div&gt;&lt;div&gt;Monitoring&lt;/div&gt;" style="image;aspect=fixed;html=1;points=[];align=center;fontSize=12;image=img/lib/azure2/management_governance/Monitor.svg;strokeColor=#BAC8D3;fontColor=#182E3E;fillColor=#B1DDF0;" parent="1" vertex="1">
          <mxGeometry x="955" y="164" width="41" height="41" as="geometry" />
        </mxCell>
        <mxCell id="F1OAkZORNfgH_RURmLhv-95" value="&lt;b&gt;&lt;font style=&quot;font-size: 14px;&quot;&gt;Secondary Region&lt;/font&gt;&lt;/b&gt;" style="rounded=0;whiteSpace=wrap;html=1;fillColor=none;dashed=1;container=0;labelPosition=center;verticalLabelPosition=top;align=center;verticalAlign=bottom;" parent="1" vertex="1">
          <mxGeometry x="685" y="350" width="478" height="385" as="geometry" />
        </mxCell>
        <mxCell id="F1OAkZORNfgH_RURmLhv-96" value="" style="group;fillColor=none;strokeColor=#6c8ebf;dashed=1;" parent="1" vertex="1" connectable="0">
          <mxGeometry x="697" y="360" width="344" height="293" as="geometry" />
        </mxCell>
        <mxCell id="F1OAkZORNfgH_RURmLhv-97" value="&lt;div&gt;Ingress&lt;/div&gt;&lt;div&gt;with&lt;/div&gt;&lt;div&gt;Load Balancer&lt;/div&gt;" style="aspect=fixed;sketch=0;html=1;dashed=0;whitespace=wrap;verticalLabelPosition=middle;verticalAlign=middle;fillColor=#2875E2;strokeColor=#ffffff;points=[[0.005,0.63,0],[0.1,0.2,0],[0.9,0.2,0],[0.5,0,0],[0.995,0.63,0],[0.72,0.99,0],[0.5,1,0],[0.28,0.99,0]];shape=mxgraph.kubernetes.icon2;prIcon=ing;fontColor=#182E3E;labelPosition=right;align=left;" parent="1" vertex="1">
          <mxGeometry x="699" y="611" width="34.62" height="33.23" as="geometry" />
        </mxCell>
        <mxCell id="F1OAkZORNfgH_RURmLhv-98" value="Microservices/Workers" style="group;fillColor=none;strokeColor=#6c8ebf;dashed=1;movable=1;resizable=1;rotatable=1;deletable=1;editable=1;locked=0;connectable=1;container=0;" parent="1" vertex="1" connectable="0">
          <mxGeometry x="752" y="367" width="268" height="225" as="geometry" />
        </mxCell>
        <mxCell id="F1OAkZORNfgH_RURmLhv-99" value="AKS" style="image;aspect=fixed;html=1;points=[];align=left;fontSize=12;image=img/lib/azure2/containers/Kubernetes_Services.svg;strokeColor=#BAC8D3;fontColor=#182E3E;fillColor=#B1DDF0;verticalAlign=middle;labelPosition=right;verticalLabelPosition=middle;labelBackgroundColor=none;" parent="1" vertex="1">
          <mxGeometry x="691" y="358" width="29.46" height="26" as="geometry" />
        </mxCell>
        <mxCell id="F1OAkZORNfgH_RURmLhv-100" style="edgeStyle=orthogonalEdgeStyle;rounded=0;orthogonalLoop=1;jettySize=auto;html=1;exitX=0.5;exitY=0;exitDx=0;exitDy=0;exitPerimeter=0;entryX=-0.042;entryY=0.628;entryDx=0;entryDy=0;entryPerimeter=0;strokeColor=#6c8ebf;fontColor=#FFFFFF;fillColor=#dae8fc;" parent="1" source="F1OAkZORNfgH_RURmLhv-97" target="F1OAkZORNfgH_RURmLhv-102" edge="1">
          <mxGeometry relative="1" as="geometry">
            <Array as="points">
              <mxPoint x="716" y="549" />
            </Array>
          </mxGeometry>
        </mxCell>
        <mxCell id="F1OAkZORNfgH_RURmLhv-101" value="" style="group;fontColor=none;noLabel=1;" parent="1" vertex="1" connectable="0">
          <mxGeometry x="752" y="367" width="405" height="225" as="geometry" />
        </mxCell>
        <mxCell id="F1OAkZORNfgH_RURmLhv-102" value="Gateway MS" style="html=1;verticalLabelPosition=bottom;align=center;labelBackgroundColor=#ffffff;verticalAlign=top;strokeWidth=2;strokeColor=#0080F0;shadow=0;dashed=0;shape=mxgraph.ios7.icons.cube;fontColor=#182E3E;fillColor=#B1DDF0;" parent="F1OAkZORNfgH_RURmLhv-101" vertex="1">
          <mxGeometry x="20.43577981651376" y="163" width="27.866972477064234" height="30" as="geometry" />
        </mxCell>
        <mxCell id="F1OAkZORNfgH_RURmLhv-103" style="edgeStyle=orthogonalEdgeStyle;rounded=0;orthogonalLoop=1;jettySize=auto;html=1;entryX=0.279;entryY=0.921;entryDx=0;entryDy=0;entryPerimeter=0;strokeColor=#6c8ebf;fontColor=#FFFFFF;fillColor=#dae8fc;" parent="F1OAkZORNfgH_RURmLhv-101" source="F1OAkZORNfgH_RURmLhv-102" target="F1OAkZORNfgH_RURmLhv-111" edge="1">
          <mxGeometry relative="1" as="geometry" />
        </mxCell>
        <mxCell id="F1OAkZORNfgH_RURmLhv-104" value="" style="edgeLabel;html=1;align=center;verticalAlign=middle;resizable=0;points=[];strokeColor=#BAC8D3;fontColor=#182E3E;fillColor=#B1DDF0;" parent="F1OAkZORNfgH_RURmLhv-103" vertex="1" connectable="0">
          <mxGeometry x="0.2651" y="3" relative="1" as="geometry">
            <mxPoint y="-1" as="offset" />
          </mxGeometry>
        </mxCell>
        <mxCell id="F1OAkZORNfgH_RURmLhv-105" style="edgeStyle=orthogonalEdgeStyle;rounded=0;orthogonalLoop=1;jettySize=auto;html=1;strokeColor=#6c8ebf;fontColor=#FFFFFF;fillColor=#dae8fc;" parent="F1OAkZORNfgH_RURmLhv-101" source="F1OAkZORNfgH_RURmLhv-102" edge="1">
          <mxGeometry relative="1" as="geometry">
            <mxPoint x="52.94724770642202" y="58" as="targetPoint" />
            <Array as="points">
              <mxPoint x="74.31192660550462" y="178" />
              <mxPoint x="74.31192660550462" y="58" />
            </Array>
          </mxGeometry>
        </mxCell>
        <mxCell id="F1OAkZORNfgH_RURmLhv-106" value="" style="edgeLabel;html=1;align=center;verticalAlign=middle;resizable=0;points=[];strokeColor=#BAC8D3;fontColor=#182E3E;fillColor=#B1DDF0;" parent="F1OAkZORNfgH_RURmLhv-105" vertex="1" connectable="0">
          <mxGeometry x="0.3031" y="3" relative="1" as="geometry">
            <mxPoint as="offset" />
          </mxGeometry>
        </mxCell>
        <mxCell id="F1OAkZORNfgH_RURmLhv-107" value="" style="edgeLabel;html=1;align=center;verticalAlign=middle;resizable=0;points=[];strokeColor=#BAC8D3;fontColor=#182E3E;fillColor=#B1DDF0;" parent="F1OAkZORNfgH_RURmLhv-105" vertex="1" connectable="0">
          <mxGeometry x="0.7987" relative="1" as="geometry">
            <mxPoint as="offset" />
          </mxGeometry>
        </mxCell>
        <mxCell id="F1OAkZORNfgH_RURmLhv-108" value="" style="edgeLabel;html=1;align=center;verticalAlign=middle;resizable=0;points=[];strokeColor=#BAC8D3;fontColor=#182E3E;fillColor=#B1DDF0;" parent="F1OAkZORNfgH_RURmLhv-105" vertex="1" connectable="0">
          <mxGeometry x="0.0016" relative="1" as="geometry">
            <mxPoint as="offset" />
          </mxGeometry>
        </mxCell>
        <mxCell id="F1OAkZORNfgH_RURmLhv-109" value="" style="edgeLabel;html=1;align=center;verticalAlign=middle;resizable=0;points=[];strokeColor=#BAC8D3;fontColor=#182E3E;fillColor=#B1DDF0;" parent="F1OAkZORNfgH_RURmLhv-105" vertex="1" connectable="0">
          <mxGeometry x="-0.2522" relative="1" as="geometry">
            <mxPoint as="offset" />
          </mxGeometry>
        </mxCell>
        <mxCell id="F1OAkZORNfgH_RURmLhv-110" style="edgeStyle=orthogonalEdgeStyle;rounded=0;orthogonalLoop=1;jettySize=auto;html=1;strokeColor=#6c8ebf;fontColor=#FFFFFF;fillColor=#dae8fc;entryX=0.501;entryY=1.057;entryDx=0;entryDy=0;entryPerimeter=0;" parent="F1OAkZORNfgH_RURmLhv-101" source="F1OAkZORNfgH_RURmLhv-102" target="F1OAkZORNfgH_RURmLhv-113" edge="1">
          <mxGeometry relative="1" as="geometry">
            <mxPoint x="104.96559633027526" y="131" as="targetPoint" />
            <Array as="points" />
          </mxGeometry>
        </mxCell>
        <mxCell id="F1OAkZORNfgH_RURmLhv-111" value="" style="html=1;verticalLabelPosition=bottom;align=center;labelBackgroundColor=#ffffff;verticalAlign=top;strokeWidth=2;strokeColor=#0080F0;shadow=0;dashed=0;shape=mxgraph.ios7.icons.cube;fontColor=#182E3E;fillColor=#B1DDF0;movable=0;resizable=0;rotatable=0;deletable=0;editable=0;locked=1;connectable=0;" parent="F1OAkZORNfgH_RURmLhv-101" vertex="1">
          <mxGeometry x="28.77293577981652" y="101" width="28.847477064220172" height="30" as="geometry" />
        </mxCell>
        <mxCell id="F1OAkZORNfgH_RURmLhv-112" value="" style="html=1;verticalLabelPosition=bottom;align=center;labelBackgroundColor=#ffffff;verticalAlign=top;strokeWidth=2;strokeColor=#0080F0;shadow=0;dashed=0;shape=mxgraph.ios7.icons.cube;fontColor=#182E3E;fillColor=#B1DDF0;movable=0;resizable=0;rotatable=0;deletable=0;editable=0;locked=1;connectable=0;" parent="F1OAkZORNfgH_RURmLhv-101" vertex="1">
          <mxGeometry x="28.77293577981652" y="43" width="28.847477064220172" height="30" as="geometry" />
        </mxCell>
        <mxCell id="F1OAkZORNfgH_RURmLhv-113" value="" style="html=1;verticalLabelPosition=bottom;align=center;labelBackgroundColor=#ffffff;verticalAlign=top;strokeWidth=2;strokeColor=#0080F0;shadow=0;dashed=0;shape=mxgraph.ios7.icons.cube;fontColor=#182E3E;fillColor=#B1DDF0;movable=0;resizable=0;rotatable=0;deletable=0;editable=0;locked=1;connectable=0;" parent="F1OAkZORNfgH_RURmLhv-101" vertex="1">
          <mxGeometry x="95.12213302752296" y="101" width="28.847477064220172" height="30" as="geometry" />
        </mxCell>
        <mxCell id="F1OAkZORNfgH_RURmLhv-114" value="" style="verticalLabelPosition=bottom;html=1;verticalAlign=top;align=center;strokeColor=none;fillColor=#00BEF2;shape=mxgraph.azure.worker_role;fontColor=#182E3E;movable=0;resizable=0;rotatable=0;deletable=0;editable=0;locked=1;connectable=0;" parent="F1OAkZORNfgH_RURmLhv-101" vertex="1">
          <mxGeometry x="185.51894495412847" y="108" width="28.847477064220172" height="23" as="geometry" />
        </mxCell>
        <mxCell id="F1OAkZORNfgH_RURmLhv-115" value="" style="verticalLabelPosition=bottom;html=1;verticalAlign=top;align=center;strokeColor=none;fillColor=#00BEF2;shape=mxgraph.azure.worker_role;fontColor=#182E3E;movable=0;resizable=0;rotatable=0;deletable=0;editable=0;locked=1;connectable=0;" parent="F1OAkZORNfgH_RURmLhv-101" vertex="1">
          <mxGeometry x="185.51894495412847" y="69" width="28.847477064220172" height="23" as="geometry" />
        </mxCell>
        <mxCell id="F1OAkZORNfgH_RURmLhv-116" value="" style="verticalLabelPosition=bottom;html=1;verticalAlign=top;align=center;strokeColor=none;fillColor=#00BEF2;shape=mxgraph.azure.worker_role;fontColor=#182E3E;movable=0;resizable=0;rotatable=0;deletable=0;editable=0;locked=1;connectable=0;" parent="F1OAkZORNfgH_RURmLhv-101" vertex="1">
          <mxGeometry x="185.51894495412847" y="35" width="28.847477064220172" height="23" as="geometry" />
        </mxCell>
        <mxCell id="F1OAkZORNfgH_RURmLhv-129" value="Read-only" style="ellipse;whiteSpace=wrap;html=1;strokeColor=#BAC8D3;fontColor=#182E3E;fillColor=#B1DDF0;" parent="F1OAkZORNfgH_RURmLhv-101" vertex="1">
          <mxGeometry x="342" y="85" width="37" height="41" as="geometry" />
        </mxCell>
        <mxCell id="ruwqJSLJR4seYNJ20cjO-2" value="Blob storage" style="verticalLabelPosition=bottom;html=1;verticalAlign=top;align=center;strokeColor=none;fillColor=#00BEF2;shape=mxgraph.azure.storage_blob;" vertex="1" parent="F1OAkZORNfgH_RURmLhv-101">
          <mxGeometry x="332" y="177" width="47" height="40" as="geometry" />
        </mxCell>
        <mxCell id="F1OAkZORNfgH_RURmLhv-127" style="edgeStyle=orthogonalEdgeStyle;rounded=0;orthogonalLoop=1;jettySize=auto;html=1;strokeColor=#d79b00;fontColor=#FFFFFF;fillColor=#ffe6cc;startArrow=none;startFill=0;exitX=0.5;exitY=1;exitDx=0;exitDy=0;" parent="1" source="F1OAkZORNfgH_RURmLhv-86" target="F1OAkZORNfgH_RURmLhv-117" edge="1">
          <mxGeometry relative="1" as="geometry" />
        </mxCell>
        <mxCell id="F1OAkZORNfgH_RURmLhv-128" value="Geo-replication" style="edgeLabel;html=1;align=center;verticalAlign=middle;resizable=0;points=[];strokeColor=#BAC8D3;fontColor=#182E3E;fillColor=#B1DDF0;" parent="F1OAkZORNfgH_RURmLhv-127" vertex="1" connectable="0">
          <mxGeometry x="0.1701" y="-1" relative="1" as="geometry">
            <mxPoint x="39" y="9" as="offset" />
          </mxGeometry>
        </mxCell>
        <mxCell id="F1OAkZORNfgH_RURmLhv-117" value="Secondary DB" style="shape=image;verticalLabelPosition=bottom;labelBackgroundColor=none;verticalAlign=top;aspect=fixed;imageAspect=0;image=data:image/svg+xml,PHN2ZyB4bWxuczpjYz0iaHR0cDovL2NyZWF0aXZlY29tbW9ucy5vcmcvbnMjIiB4bWxuczpkYz0iaHR0cDovL3B1cmwub3JnL2RjL2VsZW1lbnRzLzEuMS8iIHhtbG5zOmlua3NjYXBlPSJodHRwOi8vd3d3Lmlua3NjYXBlLm9yZy9uYW1lc3BhY2VzL2lua3NjYXBlIiB4bWxuczpyZGY9Imh0dHA6Ly93d3cudzMub3JnLzE5OTkvMDIvMjItcmRmLXN5bnRheC1ucyMiIHhtbG5zOnNvZGlwb2RpPSJodHRwOi8vc29kaXBvZGkuc291cmNlZm9yZ2UubmV0L0RURC9zb2RpcG9kaS0wLmR0ZCIgeG1sbnM6c3ZnPSJodHRwOi8vd3d3LnczLm9yZy8yMDAwL3N2ZyIgeG1sbnM9Imh0dHA6Ly93d3cudzMub3JnLzIwMDAvc3ZnIiB4bWxuczp4bGluaz0iaHR0cDovL3d3dy53My5vcmcvMTk5OS94bGluayIgdmVyc2lvbj0iMS4xIiBpZD0ic3ZnNzY2MjIiIGlua3NjYXBlOnZlcnNpb249IjAuOTIuMyAoMjQwNTU0NiwgMjAxOC0wMy0xMSkiIHNvZGlwb2RpOmRvY25hbWU9ImRhdGFfY29ubmVjdGlvbnMuc3ZnIiB4PSIwcHgiIHk9IjBweCIgdmlld0JveD0iMCAwIDE4LjE2IDI0LjA0IiBzdHlsZT0iZW5hYmxlLWJhY2tncm91bmQ6bmV3IDAgMCAxOC4xNiAyNC4wNDsiIHhtbDpzcGFjZT0icHJlc2VydmUiPiYjeGE7PHNvZGlwb2RpOm5hbWVkdmlldyBib3JkZXJjb2xvcj0iIzY2NjY2NiIgYm9yZGVyb3BhY2l0eT0iMSIgZml0LW1hcmdpbi1ib3R0b209IjAiIGZpdC1tYXJnaW4tbGVmdD0iMCIgZml0LW1hcmdpbi1yaWdodD0iMCIgZml0LW1hcmdpbi10b3A9IjAiIGdyaWR0b2xlcmFuY2U9IjEwIiBndWlkZXRvbGVyYW5jZT0iMTAiIGlkPSJuYW1lZHZpZXc3NjYyNCIgaW5rc2NhcGU6Y3VycmVudC1sYXllcj0ic3ZnNzY2MjIiIGlua3NjYXBlOmN4PSIxMy42MDI3NzEiIGlua3NjYXBlOmN5PSIxMi40OTI5OTMiIGlua3NjYXBlOnBhZ2VvcGFjaXR5PSIwIiBpbmtzY2FwZTpwYWdlc2hhZG93PSIyIiBpbmtzY2FwZTp3aW5kb3ctaGVpZ2h0PSIxMDE3IiBpbmtzY2FwZTp3aW5kb3ctbWF4aW1pemVkPSIxIiBpbmtzY2FwZTp3aW5kb3ctd2lkdGg9IjE5MjAiIGlua3NjYXBlOndpbmRvdy14PSItOCIgaW5rc2NhcGU6d2luZG93LXk9Ii04IiBpbmtzY2FwZTp6b29tPSIxOS4xMjI1MTEiIG9iamVjdHRvbGVyYW5jZT0iMTAiIHBhZ2Vjb2xvcj0iI2ZmZmZmZiIgc2hvd2dyaWQ9ImZhbHNlIj4mI3hhOwk8L3NvZGlwb2RpOm5hbWVkdmlldz4mI3hhOzxnIGlkPSJnNzY2MjAiIHRyYW5zZm9ybT0idHJhbnNsYXRlKDAsLTAuMDAxODYzOCkiPiYjeGE7CTx0aXRsZSBpZD0idGl0bGU3NjU3MCI+UGFnZS0xPC90aXRsZT4mI3hhOwk8ZyBpZD0iZ3JvdXA0NTY5LTEiPiYjeGE7CQk8dGl0bGUgaWQ9InRpdGxlNzY1NzIiPkRhdGEgQ29ubmVjdGlvbnM8L3RpdGxlPiYjeGE7CQk8ZyBpZD0ic2hhcGU0NTcwLTIiPiYjeGE7CQkJPHRpdGxlIGlkPSJ0aXRsZTc2NTc0Ij5TaGVldC40NTcwPC90aXRsZT4mI3hhOwkJCTxwYXRoIGlkPSJwYXRoNzY1NzYiIGlua3NjYXBlOmNvbm5lY3Rvci1jdXJ2YXR1cmU9IjAiIHN0eWxlPSJmaWxsOiMwMEJDRjI7IiBkPSJNMCwzLjMyYzAsMTcuNDUsMCwxNy40NSwwLDE3LjQ1ICAgICBjMCwxLjgsNC4xMywzLjI3LDkuMTgsMy4yN2MwLTIwLjcyLDAtMjAuNzIsMC0yMC43MkwwLDMuMzJ6Ii8+JiN4YTsJCTwvZz4mI3hhOwkJPGcgaWQ9InNoYXBlNDU3MS00IiB0cmFuc2Zvcm09InRyYW5zbGF0ZSg4Ljk4NDU3KSI+JiN4YTsJCQk8dGl0bGUgaWQ9InRpdGxlNzY1NzkiPlNoZWV0LjQ1NzE8L3RpdGxlPiYjeGE7CQkJPHBhdGggaWQ9InBhdGg3NjU4MSIgaW5rc2NhcGU6Y29ubmVjdG9yLWN1cnZhdHVyZT0iMCIgc3R5bGU9ImZpbGw6IzI5QzdGNDsiIGQ9Ik0wLDI0LjA0YzAuMTIsMCwwLjEyLDAsMC4xMiwwICAgICBjNS4wMSwwLDkuMDYtMS40Nyw5LjA2LTMuMjdjMC0xNy40NSwwLTE3LjQ1LDAtMTcuNDVDMCwzLjMyLDAsMy4zMiwwLDMuMzJWMjQuMDR6Ii8+JiN4YTsJCTwvZz4mI3hhOwkJPGcgaWQ9InNoYXBlNDU3Mi02IiB0cmFuc2Zvcm09InRyYW5zbGF0ZSgwLC0xNy4zOTgyKSI+JiN4YTsJCQk8dGl0bGUgaWQ9InRpdGxlNzY1ODQiPlNoZWV0LjQ1NzI8L3RpdGxlPiYjeGE7CQkJPHBhdGggaWQ9InBhdGg3NjU4NiIgaW5rc2NhcGU6Y29ubmVjdG9yLWN1cnZhdHVyZT0iMCIgc3R5bGU9ImZpbGw6I0ZGRkZGRjsiIGQ9Ik0wLDIwLjcyYzAtMS44Myw0LjA4LTMuMzIsOS4wOC0zLjMyICAgICBjNS4wMiwwLDkuMDgsMS40OSw5LjA4LDMuMzJjMCwxLjg1LTQuMDYsMy4zMi05LjA4LDMuMzJDNC4wOCwyNC4wNCwwLDIyLjU3LDAsMjAuNzJ6Ii8+JiN4YTsJCTwvZz4mI3hhOwkJPGcgaWQ9InNoYXBlNDU3My04IiB0cmFuc2Zvcm09InRyYW5zbGF0ZSgxLjk1MzE3LC0xOC43NjY2KSI+JiN4YTsJCQk8dGl0bGUgaWQ9InRpdGxlNzY1ODkiPlNoZWV0LjQ1NzM8L3RpdGxlPiYjeGE7CQkJPHBhdGggaWQ9InBhdGg3NjU5MSIgaW5rc2NhcGU6Y29ubmVjdG9yLWN1cnZhdHVyZT0iMCIgc3R5bGU9ImZpbGw6Izg1QjM1MTsiIGQ9Ik0wLDIxLjg5YzAtMS4xOCwzLjItMi4xNSw3LjEzLTIuMTUgICAgIGMzLjk0LDAsNy4xMywwLjk3LDcuMTMsMi4xNWMwLDEuMi0zLjE5LDIuMTUtNy4xMywyLjE1QzMuMiwyNC4wNCwwLDIzLjA5LDAsMjEuODl6Ii8+JiN4YTsJCTwvZz4mI3hhOwkJPGcgaWQ9InNoYXBlNDU3NC0xMCIgdHJhbnNmb3JtPSJ0cmFuc2xhdGUoMS45NTMxNywtMTkuNTQ4NikiPiYjeGE7CQkJPHRpdGxlIGlkPSJ0aXRsZTc2NTk0Ij5TaGVldC40NTc0PC90aXRsZT4mI3hhOwkJCTxwYXRoIGlkPSJwYXRoNzY1OTYiIGlua3NjYXBlOmNvbm5lY3Rvci1jdXJ2YXR1cmU9IjAiIHN0eWxlPSJmaWxsOiNCQUM4NEE7IiBkPSJNMTIuNzYsMjQuMDRjMC45Mi0wLjM5LDEuNS0wLjgxLDEuNS0xLjMxICAgICBjMC0xLjIzLTMuMi0yLjItNy4xMy0yLjJTMCwyMS41LDAsMjIuNzNjMCwwLjUsMC41OSwwLjkyLDEuNTEsMS4zMWMxLjMxLTAuNSwzLjMxLTAuODUsNS42Mi0wLjg1ICAgICBDOS40MSwyMy4xOSwxMS40NSwyMy41NCwxMi43NiwyNC4wNHoiLz4mI3hhOwkJPC9nPiYjeGE7CQk8ZyBpZD0ic2hhcGU0NTc1LTEyIiB0cmFuc2Zvcm09InRyYW5zbGF0ZSgyLjUzOTEyLC02LjA2MDA2KSI+JiN4YTsJCQk8dGl0bGUgaWQ9InRpdGxlNzY1OTkiPlNoZWV0LjQ1NzU8L3RpdGxlPiYjeGE7CQkJPHBhdGggaWQ9InBhdGg3NjYwMSIgaW5rc2NhcGU6Y29ubmVjdG9yLWN1cnZhdHVyZT0iMCIgc3R5bGU9ImZpbGw6I0ZGRkZGRjsiIGQ9Ik0xMi4zNSwyMy40MmMtMC41LDAuNDMtMS4xMiwwLjYyLTEuOTcsMC42MiAgICAgYy0yLjgyLDAtMi44MiwwLTIuODIsMGMwLTcuNDIsMC03LjQyLDAtNy40MmMyLjY3LDAsMi42NywwLDIuNjcsMGMwLjg1LDAsMS40NiwwLjEyLDEuOTMsMC40N2MwLjQzLDAuMjcsMC42MiwwLjcsMC42MiwxLjI1ICAgICBjMCwwLjQzLTAuMTYsMC43OC0wLjQ2LDEuMTRjLTAuMjcsMC4yMy0wLjU5LDAuNDItMC45NywwLjU1bDAsMGMwLjU0LDAuMDcsMC45NywwLjI2LDEuMjcsMC42MmMwLjMyLDAuMzIsMC40NywwLjcxLDAuNDcsMS4xNyAgICAgQzEzLjA5LDIyLjQ4LDEyLjgyLDIzLjAzLDEyLjM1LDIzLjQyeiBNNS40NywyMi45OWMtMC43LDAuNzEtMS42NywxLjA1LTIuODMsMS4wNWMtMi42NCwwLTIuNjQsMC0yLjY0LDBjMC03LjQyLDAtNy40MiwwLTcuNDIgICAgIGMyLjY0LDAsMi42NCwwLDIuNjQsMGMyLjYsMCwzLjksMS4xNywzLjksMy42QzYuNTQsMjEuMzksNi4yLDIyLjI5LDUuNDcsMjIuOTl6Ii8+JiN4YTsJCTwvZz4mI3hhOwkJPGcgaWQ9InNoYXBlNDU3Ni0xNCIgdHJhbnNmb3JtPSJ0cmFuc2xhdGUoNC4xMDE2NSwtNy40Mjg0NikiPiYjeGE7CQkJPHRpdGxlIGlkPSJ0aXRsZTc2NjA0Ij5TaGVldC40NTc2PC90aXRsZT4mI3hhOwkJCTxwYXRoIGlkPSJwYXRoNzY2MDYiIGlua3NjYXBlOmNvbm5lY3Rvci1jdXJ2YXR1cmU9IjAiIHN0eWxlPSJmaWxsOiMwMEJDRjI7IiBkPSJNMC44NywxOS4zNWMtMC44NywwLTAuODcsMC0wLjg3LDAgICAgIGMwLDQuNjksMCw0LjY5LDAsNC42OWMwLjg3LDAsMC44NywwLDAuODcsMGMwLjc4LDAsMS4zOS0wLjIzLDEuOC0wLjY0YzAuNDYtMC40MywwLjY1LTEuMDIsMC42NS0xLjc1YzAtMC43LTAuMTktMS4yNS0wLjYxLTEuNjcgICAgIEMyLjI2LDE5LjYsMS42NSwxOS4zNSwwLjg3LDE5LjM1eiIvPiYjeGE7CQk8L2c+JiN4YTsJCTxnIGlkPSJzaGFwZTQ1NzctMTYiIHRyYW5zZm9ybT0idHJhbnNsYXRlKDExLjcxOSwtMTAuMzYwNykiPiYjeGE7CQkJPHRpdGxlIGlkPSJ0aXRsZTc2NjA5Ij5TaGVldC40NTc3PC90aXRsZT4mI3hhOwkJCTxwYXRoIGlkPSJwYXRoNzY2MTEiIGlua3NjYXBlOmNvbm5lY3Rvci1jdXJ2YXR1cmU9IjAiIHN0eWxlPSJmaWxsOiMyOUM3RjQ7IiBkPSJNMS42MiwyMy44MWMwLjIxLTAuMTksMC4zMy0wLjQzLDAuMzMtMC42OSAgICAgYzAtMC41NS0wLjQxLTAuODMtMS4yOC0wLjgzYy0wLjY3LDAtMC42NywwLTAuNjcsMGMwLDEuNzUsMCwxLjc1LDAsMS43NWMwLjc5LDAsMC43OSwwLDAuNzksMEMxLjEyLDI0LjA0LDEuNDIsMjMuOTcsMS42MiwyMy44MSAgICAgeiIvPiYjeGE7CQk8L2c+JiN4YTsJCTxnIGlkPSJzaGFwZTQ1NzgtMTgiIHRyYW5zZm9ybT0idHJhbnNsYXRlKDExLjcxOSwtNy4yMzI5NykiPiYjeGE7CQkJPHRpdGxlIGlkPSJ0aXRsZTc2NjE0Ij5TaGVldC40NTc4PC90aXRsZT4mI3hhOwkJCTxwYXRoIGlkPSJwYXRoNzY2MTYiIGlua3NjYXBlOmNvbm5lY3Rvci1jdXJ2YXR1cmU9IjAiIHN0eWxlPSJmaWxsOiMyOUM3RjQ7IiBkPSJNMS44MSwyMi4zM2MtMC4yLTAuMTUtMC41LTAuMjQtMC44OC0wLjI0ICAgICBjLTAuOTMsMC0wLjkzLDAtMC45MywwYzAsMS45NSwwLDEuOTUsMCwxLjk1YzAuOTMsMCwwLjkzLDAsMC45MywwYzAuMzgsMCwwLjY4LTAuMDcsMC44OC0wLjI2YzAuMjMtMC4yLDAuMzQtMC40MywwLjM0LTAuNzUgICAgIEMyLjE1LDIyLjc2LDIuMDQsMjIuNTMsMS44MSwyMi4zM3oiLz4mI3hhOwkJPC9nPiYjeGE7CTwvZz4mI3hhOzwvZz4mI3hhOzwvc3ZnPg==;strokeColor=#BAC8D3;fontColor=#182E3E;fillColor=#B1DDF0;labelPosition=center;align=center;" parent="1" vertex="1">
          <mxGeometry x="1090" y="374" width="42" height="55" as="geometry" />
        </mxCell>
        <mxCell id="F1OAkZORNfgH_RURmLhv-118" value="Key Vault" style="image;aspect=fixed;html=1;points=[];align=center;fontSize=12;image=img/lib/azure2/security/Key_Vaults.svg;strokeColor=#BAC8D3;fontColor=#182E3E;fillColor=#B1DDF0;" parent="1" vertex="1">
          <mxGeometry x="820" y="669" width="37" height="37" as="geometry" />
        </mxCell>
        <mxCell id="F1OAkZORNfgH_RURmLhv-119" value="Redis cache" style="shape=image;verticalLabelPosition=bottom;labelBackgroundColor=#ffffff;verticalAlign=top;aspect=fixed;imageAspect=0;image=data:image/svg+xml,PHN2ZyB4bWxuczpjYz0iaHR0cDovL2NyZWF0aXZlY29tbW9ucy5vcmcvbnMjIiB4bWxuczpkYz0iaHR0cDovL3B1cmwub3JnL2RjL2VsZW1lbnRzLzEuMS8iIHhtbG5zOmlua3NjYXBlPSJodHRwOi8vd3d3Lmlua3NjYXBlLm9yZy9uYW1lc3BhY2VzL2lua3NjYXBlIiB4bWxuczpyZGY9Imh0dHA6Ly93d3cudzMub3JnLzE5OTkvMDIvMjItcmRmLXN5bnRheC1ucyMiIHhtbG5zOnNvZGlwb2RpPSJodHRwOi8vc29kaXBvZGkuc291cmNlZm9yZ2UubmV0L0RURC9zb2RpcG9kaS0wLmR0ZCIgeG1sbnM6c3ZnPSJodHRwOi8vd3d3LnczLm9yZy8yMDAwL3N2ZyIgeG1sbnM9Imh0dHA6Ly93d3cudzMub3JnLzIwMDAvc3ZnIiB4bWxuczp4bGluaz0iaHR0cDovL3d3dy53My5vcmcvMTk5OS94bGluayIgdmVyc2lvbj0iMS4xIiBpZD0ic3ZnOTMyMDEiIGlua3NjYXBlOnZlcnNpb249IjAuOTIuMyAoMjQwNTU0NiwgMjAxOC0wMy0xMSkiIHNvZGlwb2RpOmRvY25hbWU9InJlZGlzX2NhY2hlXzEuc3ZnIiB4PSIwcHgiIHk9IjBweCIgdmlld0JveD0iMCAwIDM3LjUxIDMxLjYiIHN0eWxlPSJlbmFibGUtYmFja2dyb3VuZDpuZXcgMCAwIDM3LjUxIDMxLjY7IiB4bWw6c3BhY2U9InByZXNlcnZlIj4mI3hhOzxzb2RpcG9kaTpuYW1lZHZpZXcgYm9yZGVyY29sb3I9IiM2NjY2NjYiIGJvcmRlcm9wYWNpdHk9IjEiIGZpdC1tYXJnaW4tYm90dG9tPSIwIiBmaXQtbWFyZ2luLWxlZnQ9IjAiIGZpdC1tYXJnaW4tcmlnaHQ9IjAiIGZpdC1tYXJnaW4tdG9wPSIwIiBncmlkdG9sZXJhbmNlPSIxMCIgZ3VpZGV0b2xlcmFuY2U9IjEwIiBpZD0ibmFtZWR2aWV3OTMyMDMiIGlua3NjYXBlOmN1cnJlbnQtbGF5ZXI9InN2ZzkzMjAxIiBpbmtzY2FwZTpjeD0iMzMuNTI0MjM1IiBpbmtzY2FwZTpjeT0iMTkuNzUxMjkxIiBpbmtzY2FwZTpwYWdlb3BhY2l0eT0iMCIgaW5rc2NhcGU6cGFnZXNoYWRvdz0iMiIgaW5rc2NhcGU6d2luZG93LWhlaWdodD0iMTAxNyIgaW5rc2NhcGU6d2luZG93LW1heGltaXplZD0iMSIgaW5rc2NhcGU6d2luZG93LXdpZHRoPSIxOTIwIiBpbmtzY2FwZTp3aW5kb3cteD0iLTgiIGlua3NjYXBlOndpbmRvdy15PSItOCIgaW5rc2NhcGU6em9vbT0iMTMuODg5MzQ4IiBvYmplY3R0b2xlcmFuY2U9IjEwIiBwYWdlY29sb3I9IiNmZmZmZmYiIHNob3dncmlkPSJmYWxzZSI+JiN4YTsJPC9zb2RpcG9kaTpuYW1lZHZpZXc+JiN4YTs8ZyBpZD0iZzkzMTk5IiB0cmFuc2Zvcm09InRyYW5zbGF0ZSgtMC43NDY3NjM4LC0wLjc1MTYyNSkiPiYjeGE7CTx0aXRsZSBpZD0idGl0bGU5MzExNSI+UGFnZS0xPC90aXRsZT4mI3hhOwk8ZyBpZD0iZ3JvdXA0OTc3LTEiIHRyYW5zZm9ybT0idHJhbnNsYXRlKDAuNDA3MjksLTAuNjA5Mzc1KSI+JiN4YTsJCTx0aXRsZSBpZD0idGl0bGU5MzExNyI+UmVkaXMgQ2FjaGUgIzE8L3RpdGxlPiYjeGE7CQk8ZyBpZD0iZ3JvdXA0OTc4LTIiPiYjeGE7CQkJPHRpdGxlIGlkPSJ0aXRsZTkzMTE5Ij5TaGVldC40OTc4PC90aXRsZT4mI3hhOwkJCTxnIGlkPSJzaGFwZTQ5NzktMyIgdHJhbnNmb3JtPSJ0cmFuc2xhdGUoMC4yMzcpIj4mI3hhOwkJCQk8dGl0bGUgaWQ9InRpdGxlOTMxMjEiPlNoZWV0LjQ5Nzk8L3RpdGxlPiYjeGE7CQkJCTxwYXRoIGlkPSJwYXRoOTMxMjMiIGlua3NjYXBlOmNvbm5lY3Rvci1jdXJ2YXR1cmU9IjAiIHN0eWxlPSJmaWxsOiNCQTE0MUE7IiBkPSJNMC4xMSwyNS4xOWMtMC4wNiwwLjQsMC4yOCwwLjgsMS4wMiwxLjExICAgICAgbDE1LjI0LDYuMjRjMS4zNywwLjU2LDMuNiwwLjU2LDQuOTcsMGwxNS4yNC02LjI0YzAuNzQtMC4zMSwxLjA4LTAuNzEsMS4wMi0xLjExdi0zLjU4YzAuMDUsMC4zOS0wLjI5LDAuNzktMS4wMiwxLjA5ICAgICAgbC0xNS4yNCw2LjI0Yy0xLjM3LDAuNTYtMy42LDAuNTYtNC45NywwTDEuMTMsMjIuN2MtMC44LTAuMzMtMS4xMy0wLjc4LTEtMS4yTDAuMTEsMjUuMTl6Ii8+JiN4YTsJCQk8L2c+JiN4YTsJCQk8ZyBpZD0ic2hhcGU0OTgwLTUiIHRyYW5zZm9ybT0idHJhbnNsYXRlKDAsLTMuNikiPiYjeGE7CQkJCTx0aXRsZSBpZD0idGl0bGU5MzEyNiI+U2hlZXQuNDk4MDwvdGl0bGU+JiN4YTsJCQkJPHBhdGggaWQ9InBhdGg5MzEyOCIgaW5rc2NhcGU6Y29ubmVjdG9yLWN1cnZhdHVyZT0iMCIgc3R5bGU9ImZpbGw6I0JBMTQxQTsiIGQ9Ik0zNi44MSwyNC4yNmMxLjM4LDAuNTcsMS4zOCwxLjQ4LDAsMi4wNCAgICAgIGwtMTUuMjMsNi4yNGMtMS4zNywwLjU2LTMuNiwwLjU2LTQuOTcsMEwxLjM3LDI2LjNDMCwyNS43NCwwLDI0LjgyLDEuMzcsMjQuMjZsMTUuMjQtNi4yNGMxLjM3LTAuNTYsMy42LTAuNTYsNC45NywwICAgICAgTDM2LjgxLDI0LjI2eiIvPiYjeGE7CQkJPC9nPiYjeGE7CQk8L2c+JiN4YTsJCTxnIGlkPSJncm91cDQ5ODEtNyIgdHJhbnNmb3JtPSJ0cmFuc2xhdGUoMCwtNi4zMTk1KSI+JiN4YTsJCQk8dGl0bGUgaWQ9InRpdGxlOTMxMzIiPlNoZWV0LjQ5ODE8L3RpdGxlPiYjeGE7CQkJPGcgaWQ9InNoYXBlNDk4Mi04IiB0cmFuc2Zvcm09InRyYW5zbGF0ZSgwLjIzNykiPiYjeGE7CQkJCTx0aXRsZSBpZD0idGl0bGU5MzEzNCI+U2hlZXQuNDk4MjwvdGl0bGU+JiN4YTsJCQkJPHBhdGggaWQ9InBhdGg5MzEzNiIgaW5rc2NhcGU6Y29ubmVjdG9yLWN1cnZhdHVyZT0iMCIgc3R5bGU9ImZpbGw6I0JBMTQxQTsiIGQ9Ik0wLjExLDI1LjE5Yy0wLjA2LDAuNCwwLjI4LDAuOCwxLjAyLDEuMTEgICAgICBsMTUuMjQsNi4yNGMxLjM3LDAuNTYsMy42LDAuNTYsNC45NywwbDE1LjI0LTYuMjRjMC43NC0wLjMxLDEuMDgtMC43MSwxLjAyLTEuMTF2LTMuNThjMC4wNSwwLjM5LTAuMjksMC43OS0xLjAyLDEuMDkgICAgICBsLTE1LjI0LDYuMjRjLTEuMzcsMC41Ni0zLjYsMC41Ni00Ljk3LDBMMS4xMywyMi43Yy0wLjgtMC4zMy0xLjEzLTAuNzgtMS0xLjJMMC4xMSwyNS4xOXoiLz4mI3hhOwkJCTwvZz4mI3hhOwkJCTxnIGlkPSJzaGFwZTQ5ODMtMTAiIHRyYW5zZm9ybT0idHJhbnNsYXRlKDAsLTMuNikiPiYjeGE7CQkJCTx0aXRsZSBpZD0idGl0bGU5MzEzOSI+U2hlZXQuNDk4MzwvdGl0bGU+JiN4YTsJCQkJPHBhdGggaWQ9InBhdGg5MzE0MSIgaW5rc2NhcGU6Y29ubmVjdG9yLWN1cnZhdHVyZT0iMCIgc3R5bGU9ImZpbGw6I0JBMTQxQTsiIGQ9Ik0zNi44MSwyNC4yNmMxLjM4LDAuNTcsMS4zOCwxLjQ4LDAsMi4wNCAgICAgIGwtMTUuMjMsNi4yNGMtMS4zNywwLjU2LTMuNiwwLjU2LTQuOTcsMEwxLjM3LDI2LjNDMCwyNS43NCwwLDI0LjgyLDEuMzcsMjQuMjZsMTUuMjQtNi4yNGMxLjM3LTAuNTYsMy42LTAuNTYsNC45NywwICAgICAgTDM2LjgxLDI0LjI2eiIvPiYjeGE7CQkJPC9nPiYjeGE7CQk8L2c+JiN4YTsJCTxnIGlkPSJncm91cDQ5ODQtMTIiPiYjeGE7CQkJPHRpdGxlIGlkPSJ0aXRsZTkzMTQ1Ij5TaGVldC40OTg0PC90aXRsZT4mI3hhOwkJCTxnIGlkPSJzaGFwZTQ5ODUtMTMiIHRyYW5zZm9ybT0idHJhbnNsYXRlKDAuMjM3LC0xMi42MzkpIj4mI3hhOwkJCQk8dGl0bGUgaWQ9InRpdGxlOTMxNDciPlNoZWV0LjQ5ODU8L3RpdGxlPiYjeGE7CQkJCTxwYXRoIGlkPSJwYXRoOTMxNDkiIGlua3NjYXBlOmNvbm5lY3Rvci1jdXJ2YXR1cmU9IjAiIHN0eWxlPSJmaWxsOiNCQTE0MUE7IiBkPSJNMC4xMSwyNS4xOWMtMC4wNiwwLjQsMC4yOCwwLjgsMS4wMiwxLjExICAgICAgbDE1LjI0LDYuMjRjMS4zNywwLjU2LDMuNiwwLjU2LDQuOTcsMGwxNS4yNC02LjI0YzAuNzQtMC4zMSwxLjA4LTAuNzEsMS4wMi0xLjExdi0zLjU4YzAuMDUsMC4zOS0wLjI5LDAuNzktMS4wMiwxLjA5ICAgICAgbC0xNS4yNCw2LjI0Yy0xLjM3LDAuNTYtMy42LDAuNTYtNC45NywwTDEuMTMsMjIuN2MtMC44LTAuMzMtMS4xMy0wLjc4LTEtMS4yTDAuMTEsMjUuMTl6Ii8+JiN4YTsJCQk8L2c+JiN4YTsJCQk8ZyBpZD0ic2hhcGU0OTg2LTE1IiB0cmFuc2Zvcm09InRyYW5zbGF0ZSgwLjIzNykiPiYjeGE7CQkJCTx0aXRsZSBpZD0idGl0bGU5MzE1MiI+U2hlZXQuNDk4NjwvdGl0bGU+JiN4YTsJCQkJPHBhdGggaWQ9InBhdGg5MzE1NCIgaW5rc2NhcGU6Y29ubmVjdG9yLWN1cnZhdHVyZT0iMCIgc3R5bGU9ImZpbGw6IzFFMUUxRTtmaWxsLW9wYWNpdHk6MC4yNTsiIGQ9Ik0wLjExLDI1LjE5ICAgICAgYy0wLjA2LDAuNCwwLjI4LDAuOCwxLjAyLDEuMTFsMTUuMjQsNi4yNGMxLjM3LDAuNTYsMy42LDAuNTYsNC45NywwbDE1LjI0LTYuMjRjMC43NC0wLjMxLDEuMDgtMC43MSwxLjAyLTEuMTF2LTMuNTggICAgICBjMC4wNSwwLjM5LTAuMjksMC43OS0xLjAyLDEuMDlsLTE1LjI0LDYuMjRjLTEuMzcsMC41Ni0zLjYsMC41Ni00Ljk3LDBMMS4xMywyMi43Yy0wLjgtMC4zMy0xLjEzLTAuNzgtMS0xLjJMMC4xMSwyNS4xOXoiLz4mI3hhOwkJCTwvZz4mI3hhOwkJCTxnIGlkPSJzaGFwZTQ5ODctMTciIHRyYW5zZm9ybT0idHJhbnNsYXRlKDAuMjM3LC02LjMxOTUpIj4mI3hhOwkJCQk8dGl0bGUgaWQ9InRpdGxlOTMxNTciPlNoZWV0LjQ5ODc8L3RpdGxlPiYjeGE7CQkJCTxwYXRoIGlkPSJwYXRoOTMxNTkiIGlua3NjYXBlOmNvbm5lY3Rvci1jdXJ2YXR1cmU9IjAiIHN0eWxlPSJmaWxsOiMxRTFFMUU7ZmlsbC1vcGFjaXR5OjAuMjU7IiBkPSJNMC4xMSwyNS4xOSAgICAgIGMtMC4wNiwwLjQsMC4yOCwwLjgsMS4wMiwxLjExbDE1LjI0LDYuMjRjMS4zNywwLjU2LDMuNiwwLjU2LDQuOTcsMGwxNS4yNC02LjI0YzAuNzQtMC4zMSwxLjA4LTAuNzEsMS4wMi0xLjExdi0zLjU4ICAgICAgYzAuMDUsMC4zOS0wLjI5LDAuNzktMS4wMiwxLjA5bC0xNS4yNCw2LjI0Yy0xLjM3LDAuNTYtMy42LDAuNTYtNC45NywwTDEuMTMsMjIuN2MtMC44LTAuMzMtMS4xMy0wLjc4LTEtMS4yTDAuMTEsMjUuMTl6Ii8+JiN4YTsJCQk8L2c+JiN4YTsJCQk8ZyBpZD0ic2hhcGU0OTg4LTE5IiB0cmFuc2Zvcm09InRyYW5zbGF0ZSgwLjIzNywtMTIuNjM5KSI+JiN4YTsJCQkJPHRpdGxlIGlkPSJ0aXRsZTkzMTYyIj5TaGVldC40OTg4PC90aXRsZT4mI3hhOwkJCQk8cGF0aCBpZD0icGF0aDkzMTY0IiBpbmtzY2FwZTpjb25uZWN0b3ItY3VydmF0dXJlPSIwIiBzdHlsZT0iZmlsbDojMUUxRTFFO2ZpbGwtb3BhY2l0eTowLjI1OyIgZD0iTTAuMTEsMjUuMTkgICAgICBjLTAuMDYsMC40LDAuMjgsMC44LDEuMDIsMS4xMWwxNS4yNCw2LjI0YzEuMzcsMC41NiwzLjYsMC41Niw0Ljk3LDBsMTUuMjQtNi4yNGMwLjc0LTAuMzEsMS4wOC0wLjcxLDEuMDItMS4xMXYtMy41OCAgICAgIGMwLjA1LDAuMzktMC4yOSwwLjc5LTEuMDIsMS4wOWwtMTUuMjQsNi4yNGMtMS4zNywwLjU2LTMuNiwwLjU2LTQuOTcsMEwxLjEzLDIyLjdjLTAuOC0wLjMzLTEuMTMtMC43OC0xLTEuMkwwLjExLDI1LjE5eiIvPiYjeGE7CQkJPC9nPiYjeGE7CQkJPGcgaWQ9InNoYXBlNDk4OS0yMSIgdHJhbnNmb3JtPSJ0cmFuc2xhdGUoMCwtMTYuMjM5KSI+JiN4YTsJCQkJPHRpdGxlIGlkPSJ0aXRsZTkzMTY3Ij5TaGVldC40OTg5PC90aXRsZT4mI3hhOwkJCQk8cGF0aCBpZD0icGF0aDkzMTY5IiBpbmtzY2FwZTpjb25uZWN0b3ItY3VydmF0dXJlPSIwIiBzdHlsZT0iZmlsbDojQkExNDFBOyIgZD0iTTM2LjgxLDI0LjI2YzEuMzgsMC41NywxLjM4LDEuNDgsMCwyLjA0ICAgICAgbC0xNS4yMyw2LjI0Yy0xLjM3LDAuNTYtMy42LDAuNTYtNC45NywwTDEuMzcsMjYuM0MwLDI1Ljc0LDAsMjQuODIsMS4zNywyNC4yNmwxNS4yNC02LjI0YzEuMzctMC41NiwzLjYtMC41Niw0Ljk3LDAgICAgICBMMzYuODEsMjQuMjZ6Ii8+JiN4YTsJCQk8L2c+JiN4YTsJCTwvZz4mI3hhOwkJPGcgaWQ9InNoYXBlNDk5MC0yMyIgdHJhbnNmb3JtPSJ0cmFuc2xhdGUoNi4zNjE1LC0yMi4xMTIzKSI+JiN4YTsJCQk8dGl0bGUgaWQ9InRpdGxlOTMxNzMiPlNoZWV0LjQ5OTA8L3RpdGxlPiYjeGE7CQkJPHBhdGggaWQ9InBhdGg5MzE3NSIgaW5rc2NhcGU6Y29ubmVjdG9yLWN1cnZhdHVyZT0iMCIgc3R5bGU9ImZpbGw6I0ZGRkZGRjsiIGQ9Ik04LjA0LDMyLjMzYy0xLjc0LDAuNzctNC41NiwwLjc3LTYuMywwICAgICBDMCwzMS41NiwwLDMwLjMsMS43NCwyOS41M2MxLjc0LTAuNzcsNC41Ni0wLjc3LDYuMywwQzkuNzcsMzAuMyw5Ljc4LDMxLjU2LDguMDQsMzIuMzN6Ii8+JiN4YTsJCTwvZz4mI3hhOwkJPGcgaWQ9InNoYXBlNDk5MS0yNSIgdHJhbnNmb3JtPSJ0cmFuc2xhdGUoMTMuMjE4LC0xNy45ODgpIj4mI3hhOwkJCTx0aXRsZSBpZD0idGl0bGU5MzE3OCI+U2hlZXQuNDk5MTwvdGl0bGU+JiN4YTsJCQk8cGF0aCBpZD0icGF0aDkzMTgwIiBpbmtzY2FwZTpjb25uZWN0b3ItY3VydmF0dXJlPSIwIiBzdHlsZT0iZmlsbDojRkZGRkZGOyIgZD0iTTAsMzAuMmw4LjkyLTEuMDZMNi41MywzMy4xTDAsMzAuMnoiLz4mI3hhOwkJPC9nPiYjeGE7CQk8ZyBpZD0ic2hhcGU0OTkyLTI3IiB0cmFuc2Zvcm09InRyYW5zbGF0ZSgyMS44NjQsLTIxLjg5MSkiPiYjeGE7CQkJPHRpdGxlIGlkPSJ0aXRsZTkzMTgzIj5TaGVldC40OTkyPC90aXRsZT4mI3hhOwkJCTxwYXRoIGlkPSJwYXRoOTMxODUiIGlua3NjYXBlOmNvbm5lY3Rvci1jdXJ2YXR1cmU9IjAiIHN0eWxlPSJmaWxsOiMxRTFFMUU7ZmlsbC1vcGFjaXR5OjAuMjU7IiBkPSJNNS4zNCwzMy4xTDAsMzAuNzNsNS4zNC0yLjM3ICAgICBsNS4zMywyLjM3TDUuMzQsMzMuMXoiLz4mI3hhOwkJPC9nPiYjeGE7CQk8ZyBpZD0ic2hhcGU0OTkzLTI5IiB0cmFuc2Zvcm09InRyYW5zbGF0ZSgyMS44NjQsLTIxLjg5MSkiPiYjeGE7CQkJPHRpdGxlIGlkPSJ0aXRsZTkzMTg4Ij5TaGVldC40OTkzPC90aXRsZT4mI3hhOwkJCTxwYXRoIGlkPSJwYXRoOTMxOTAiIGlua3NjYXBlOmNvbm5lY3Rvci1jdXJ2YXR1cmU9IjAiIHN0eWxlPSJmaWxsOiMxRTFFMUU7ZmlsbC1vcGFjaXR5OjAuMjU7IiBkPSJNNS4zNCwzMy4xTDAsMzAuNzNsNS4zNC0yLjM3ICAgICBWMzMuMXoiLz4mI3hhOwkJPC9nPiYjeGE7CQk8ZyBpZD0ic2hhcGU0OTk0LTMxIiB0cmFuc2Zvcm09InRyYW5zbGF0ZSgxMy44OTY3LC0yNS42MTU1KSI+JiN4YTsJCQk8dGl0bGUgaWQ9InRpdGxlOTMxOTMiPlNoZWV0LjQ5OTQ8L3RpdGxlPiYjeGE7CQkJPHBhdGggaWQ9InBhdGg5MzE5NSIgaW5rc2NhcGU6Y29ubmVjdG9yLWN1cnZhdHVyZT0iMCIgc3R5bGU9ImZpbGw6I0ZGRkZGRjsiIGQ9Ik0zLjQ4LDMxLjU1TDAsMzEuMjRsMy4wOS0wLjc4bC0wLjQtMS41NyAgICAgbDIuNjIsMS4wN2wzLjI0LTAuNjZsLTEuNDgsMS40NGwyLjQxLDEuMTdsLTMuNTQtMC4xOEw0LjE5LDMzLjFMMy40OCwzMS41NXoiLz4mI3hhOwkJPC9nPiYjeGE7CTwvZz4mI3hhOzwvZz4mI3hhOzwvc3ZnPg==;strokeColor=#BAC8D3;fontColor=#182E3E;fillColor=#B1DDF0;" parent="1" vertex="1">
          <mxGeometry x="897" y="669" width="38" height="32" as="geometry" />
        </mxCell>
        <mxCell id="F1OAkZORNfgH_RURmLhv-120" value="&lt;div&gt;Dignostics&lt;/div&gt;&lt;div&gt;Monitoring&lt;/div&gt;" style="image;aspect=fixed;html=1;points=[];align=center;fontSize=12;image=img/lib/azure2/management_governance/Monitor.svg;strokeColor=#BAC8D3;fontColor=#182E3E;fillColor=#B1DDF0;" parent="1" vertex="1">
          <mxGeometry x="980" y="663.5" width="32" height="32" as="geometry" />
        </mxCell>
        <mxCell id="F1OAkZORNfgH_RURmLhv-121" style="edgeStyle=orthogonalEdgeStyle;rounded=0;orthogonalLoop=1;jettySize=auto;html=1;exitX=0.5;exitY=1;exitDx=0;exitDy=0;entryX=0.005;entryY=0.63;entryDx=0;entryDy=0;entryPerimeter=0;strokeColor=#6c8ebf;fontColor=#FFFFFF;fillColor=#dae8fc;" parent="1" source="F1OAkZORNfgH_RURmLhv-38" target="F1OAkZORNfgH_RURmLhv-97" edge="1">
          <mxGeometry relative="1" as="geometry" />
        </mxCell>
        <mxCell id="F1OAkZORNfgH_RURmLhv-125" style="edgeStyle=orthogonalEdgeStyle;rounded=0;orthogonalLoop=1;jettySize=auto;html=1;entryX=1;entryY=0.5;entryDx=0;entryDy=0;strokeColor=#6c8ebf;fontColor=#FFFFFF;fillColor=#dae8fc;" parent="1" source="F1OAkZORNfgH_RURmLhv-122" target="F1OAkZORNfgH_RURmLhv-10" edge="1">
          <mxGeometry relative="1" as="geometry">
            <Array as="points">
              <mxPoint x="588" y="186" />
              <mxPoint x="588" y="602" />
            </Array>
          </mxGeometry>
        </mxCell>
        <mxCell id="F1OAkZORNfgH_RURmLhv-122" value="&lt;div&gt;Kubernetes&lt;/div&gt;&lt;div&gt;Cluster&lt;/div&gt;" style="image;sketch=0;aspect=fixed;html=1;points=[];align=center;fontSize=12;image=img/lib/mscae/Kubernetes.svg;strokeColor=#BAC8D3;fontColor=#182E3E;fillColor=#B1DDF0;labelBackgroundColor=none;" parent="1" vertex="1">
          <mxGeometry x="695.08" y="168" width="38.54" height="37" as="geometry" />
        </mxCell>
        <mxCell id="F1OAkZORNfgH_RURmLhv-124" style="edgeStyle=orthogonalEdgeStyle;rounded=0;orthogonalLoop=1;jettySize=auto;html=1;strokeColor=#6c8ebf;fontColor=#FFFFFF;fillColor=#dae8fc;" parent="1" source="F1OAkZORNfgH_RURmLhv-123" edge="1">
          <mxGeometry relative="1" as="geometry">
            <mxPoint x="491.3157766241777" y="623.947374845806" as="targetPoint" />
          </mxGeometry>
        </mxCell>
        <mxCell id="F1OAkZORNfgH_RURmLhv-123" value="&lt;div&gt;Kubernetes&lt;/div&gt;&lt;div&gt;Cluster&lt;/div&gt;" style="image;sketch=0;aspect=fixed;html=1;points=[];align=center;fontSize=12;image=img/lib/mscae/Kubernetes.svg;strokeColor=#BAC8D3;fontColor=#182E3E;fillColor=#B1DDF0;labelBackgroundColor=none;" parent="1" vertex="1">
          <mxGeometry x="697" y="661" width="38.54" height="37" as="geometry" />
        </mxCell>
        <mxCell id="F1OAkZORNfgH_RURmLhv-130" value="Read-Write" style="ellipse;whiteSpace=wrap;html=1;strokeColor=#BAC8D3;fontColor=#182E3E;fillColor=#B1DDF0;" parent="1" vertex="1">
          <mxGeometry x="1093" y="101" width="42.5" height="41" as="geometry" />
        </mxCell>
        <mxCell id="F1OAkZORNfgH_RURmLhv-131" value="Service bus" style="image;aspect=fixed;html=1;points=[];align=center;fontSize=12;image=img/lib/azure2/integration/Service_Bus.svg;strokeColor=#BAC8D3;fontColor=#182E3E;fillColor=#B1DDF0;" parent="1" vertex="1">
          <mxGeometry x="1081" y="-129" width="41" height="36.18" as="geometry" />
        </mxCell>
        <mxCell id="F1OAkZORNfgH_RURmLhv-132" value="Service bus" style="image;aspect=fixed;html=1;points=[];align=center;fontSize=12;image=img/lib/azure2/integration/Service_Bus.svg;strokeColor=#BAC8D3;fontColor=#182E3E;fillColor=#B1DDF0;" parent="1" vertex="1">
          <mxGeometry x="1057" y="665" width="41" height="36.18" as="geometry" />
        </mxCell>
        <mxCell id="ruwqJSLJR4seYNJ20cjO-3" style="edgeStyle=orthogonalEdgeStyle;rounded=0;orthogonalLoop=1;jettySize=auto;html=1;exitX=1;exitY=0.5;exitDx=0;exitDy=0;exitPerimeter=0;entryX=1;entryY=0.5;entryDx=0;entryDy=0;entryPerimeter=0;" edge="1" parent="1" source="ruwqJSLJR4seYNJ20cjO-1" target="ruwqJSLJR4seYNJ20cjO-2">
          <mxGeometry relative="1" as="geometry">
            <Array as="points">
              <mxPoint x="1235" y="-24" />
              <mxPoint x="1235" y="562" />
              <mxPoint x="1131" y="562" />
            </Array>
          </mxGeometry>
        </mxCell>
        <mxCell id="ruwqJSLJR4seYNJ20cjO-4" value="Geo-replication" style="edgeLabel;html=1;align=center;verticalAlign=middle;resizable=0;points=[];" vertex="1" connectable="0" parent="ruwqJSLJR4seYNJ20cjO-3">
          <mxGeometry x="0.1112" y="-5" relative="1" as="geometry">
            <mxPoint x="1" y="-50" as="offset" />
          </mxGeometry>
        </mxCell>
      </root>
    </mxGraphModel>
  </diagram>
</mxfile>
